<svg id="LinealColor" viewBox="0 0 512 512" xmlns="http://www.w3.org/2000/svg"><g fill="#196868"><path d="m278.817 101.172c-13.874-34.805-97.867-49.863-131.659 3.828a18.592 18.592 0 0 1 -13.606 8.554c-26.375 3.072-48.518 33.6-35.371 62.871h181.459z"/><path d="m226.466 101.172c13.875-34.8 97.867-49.863 131.66 3.828a18.588 18.588 0 0 0 13.605 8.554c26.375 3.072 48.519 33.6 35.371 62.871h-181.459z"/><path d="m306.351 109.5a14.2 14.2 0 0 1 -8.139-4.091c-13.59-13.592-26.4-19.317-45.57-19.4-19.167.079-31.981 5.8-45.571 19.4a14.2 14.2 0 0 1 -8.139 4.091c-18.932 2.5-43.056 19.865-43.056 66.171h193.531c0-46.306-24.128-63.671-43.056-66.171z"/><path d="m313.029 144.653c-27.293-37.293-98.966-40.442-126.915 3.147l-1.47 35.4h132.137z"/></g><path d="m249.123 143.4c-6.7-1.14-11.954-5.568-17.318-10.226-23.151-20.1-75.51-20.692-112.706 15.088v51.626l171.121 1.462c-2.42-33.663-28.037-55.728-41.097-57.95z" fill="#1a7267"/><path d="m386.184 148.266c-37.2-35.781-89.555-35.194-112.705-15.089-5.364 4.658-10.616 9.087-17.319 10.226-13.06 2.219-38.672 24.284-41.1 57.947h171.12z" fill="#218278"/><path d="m454.51 203.85c-15.436-56.654-55.517-89.49-91.47-52.822-5.848 5.964-11.826 13.618-25.311 12.784-51.3-3.174-78.181 18.687-92.595 44.879l1.13 240.88c200.447 6.534 233.561-152.81 208.246-245.721z" fill="#2d9179"/><path d="m354.15 376.827c-12.041 30.769-34.017 77.618-102.15 75.4-185.166-6.022-234.935-153.234-181.659-285.905 15.461-38.5 80.768-42.746 99.971-5.577a12.251 12.251 0 0 0 16.2 5.3c52.537-25.033 119.895 20.6 124.411 78.736 1.209 15.574-.8 28.046 12.241 37.1 22.849 15.863 49.03 48.835 30.986 94.946z" fill="#3dad77"/><path d="m460.3 202.274c-9.708-35.633-28.935-61.941-50.832-70.052-8.215-13.471-22.146-22.893-37.043-24.628a12.544 12.544 0 0 1 -9.22-5.79c-14.369-22.828-38.421-36.282-67.727-37.884a101.573 101.573 0 0 0 -38.152 5.2 14.155 14.155 0 0 1 -9.231.01c-35.679-12.382-82.835-4.153-106.015 32.67a12.546 12.546 0 0 1 -9.223 5.79c-15.891 1.851-30.7 12.549-38.594 27.364-13.638 6.018-24.326 16.268-29.49 29.127-30.889 76.925-26.707 156.311 11.186 212.362 24.783 36.657 75.552 80.357 176.683 80.357 12.733 0 27.909-1.743 33.36-2.214 30.569-2.639 57.938-9.741 81.547-21.2a169.728 169.728 0 0 0 62.987-51.794c18.6-25.071 30.825-56.369 35.347-90.511 3.926-29.646 1.943-61.181-5.583-88.807zm-165.478-126.374c14.658.8 41.715 6.06 58.226 32.294a24.488 24.488 0 0 0 17.989 11.317 37.423 37.423 0 0 1 21.011 10.13c-9.724.662-21.309 4.961-33.293 17.182q-.786.8-1.58 1.637c-5.119 5.341-9.552 9.953-19.076 9.361-25.785-1.6-47.725 2.863-65.3 13.257q-3.627-2.512-7.481-4.753a102.414 102.414 0 0 0 -21.454-9.379c5.321-4.555 10.24-7.111 13.3-7.631 8.551-1.452 15.037-7.085 20.248-11.611 8.414-7.307 21.659-11.774 36.338-12.256a93.338 93.338 0 0 1 48.05 12.081 6 6 0 0 0 5.876-10.463 107.337 107.337 0 0 0 -35.784-12.352 49.681 49.681 0 0 0 -24.755-11.162 8.228 8.228 0 0 1 -4.678-2.385c-12.749-12.751-25.137-19.067-41.218-20.7a89.878 89.878 0 0 1 33.581-4.567zm-42.205 16.11c17.361.071 28.569 4.853 41.353 17.64a20.559 20.559 0 0 0 7.9 4.913 76.7 76.7 0 0 0 -13.464 3.389c-23.345-10.468-51.384-10.817-74.379-.919a79.3 79.3 0 0 0 -10.654-2.453 20.557 20.557 0 0 0 7.945-4.931c12.782-12.783 23.987-17.565 41.299-17.636zm21.146 33.353a51.389 51.389 0 0 0 -4.219 3.281c-5.361 4.656-9.531 8.015-14.39 8.841q-.531.09-1.076.215a8.088 8.088 0 0 1 -4.485-.206c-4.085-1.435-8.726-4.4-13.854-8.85a51.332 51.332 0 0 0 -5.735-4.3 85.055 85.055 0 0 1 43.759 1.022zm-139.518-5.852a24.491 24.491 0 0 0 17.991-11.311c21.706-34.488 64.374-37.012 91.81-27.735-16.066 1.63-28.461 7.946-41.217 20.7a8.229 8.229 0 0 1 -4.681 2.386c-7.7 1.015-16.065 4.892-23.707 10.957a105.517 105.517 0 0 0 -24.789 6.738 6 6 0 1 0 4.542 11.108c30.134-12.322 59.873-6.636 73.677 5.352a69.579 69.579 0 0 0 10.911 7.914 73.724 73.724 0 0 0 -8.96 8.218 80.215 80.215 0 0 0 -45.886 6.792 6.23 6.23 0 0 1 -8.293-2.639c-9.811-18.991-31.351-30.055-56.2-28.872-2.109.1-4.19.3-6.241.569a37.511 37.511 0 0 1 21.043-10.174zm-48.345 250.211a159.191 159.191 0 0 1 -9.426-15.887 42.372 42.372 0 0 0 19.194 5.819 154.453 154.453 0 0 0 21.214 37.346 145.55 145.55 0 0 0 16.91 18.389 155.157 155.157 0 0 1 -47.892-45.667zm184.33 73.564c-1.227.216-2.464.368-3.705.492-3.351.333-10.467 1.02-13.883 1.02a303.771 303.771 0 0 1 -30.382-1.49c22.017-9.464 43.069-30.862 43.16-68.758a6.153 6.153 0 0 0 -5.251-6.2 6 6 0 0 0 -6.749 5.955c0 42.473-30.957 60.256-53.6 62.65a18.63 18.63 0 0 1 -8.048-.988 140.79 140.79 0 0 1 -59.424-39.129c45.51-13.871 50.262-39.45 54.862-64.237 3.6-19.4 7-37.732 29.937-52.768a6 6 0 0 0 1.4-8.76 6.181 6.181 0 0 0 -8.212-1.122c-27.012 17.821-31.216 40.471-34.925 60.46-4.45 23.98-8.315 44.78-51.248 56.289-24.187-33.126-33.568-76.761-27.14-126.491a6.165 6.165 0 0 0 -4.36-6.814 6 6 0 0 0 -7.508 5.019c-4.19 32.171-2.089 62.03 6.048 88.521-14.1-3.224-23.095-14.8-27.929-27.069-17.281-43.875-8.406-98.9 12.64-151.307 6.3-15.7 23.616-26.477 44.1-27.45q1.382-.066 2.8-.067c15.267 0 33.581 5.838 42.167 22.458a18.179 18.179 0 0 0 24.117 7.966c21.3-10.15 46.895-8.236 70.217 5.251 26.032 15.055 43.517 41.315 45.631 68.533.2 2.527.306 5.012.412 7.414.542 12.256 1.1 24.929 14.39 34.152 11.656 8.091 48.18 38.336 28.814 87.826-4.146 10.597-25.961 59.426-78.331 68.644zm150.67-68.849a155.827 155.827 0 0 1 -33.228 33.063 168.494 168.494 0 0 0 12.558-13.85 184 184 0 0 0 30.609-55.762 48.793 48.793 0 0 0 12.649-5.537 167.909 167.909 0 0 1 -22.588 42.086zm30.789-71.351a32.6 32.6 0 0 1 -16.359 20.133 247.62 247.62 0 0 0 8.05-64.03 6 6 0 1 0 -12 0c0 37.172-7.739 70.442-21.908 98.163-21.192-7.382-23.88-21.131-27.223-38.248-2.892-14.8-6.168-31.583-23.393-43.487a6 6 0 0 0 -6.823 9.871c13.206 9.128 15.748 22.139 18.438 35.916 3.37 17.255 7.172 36.62 33.109 46.55-19.088 31.633-48.77 57.463-83.8 69.4-2.371.535-4.779 1.027-7.206 1.5a115.6 115.6 0 0 0 11.674-8.984c20.637-18.063 31.1-39.614 35.5-50.853 8.7-22.236 8.611-43.584-.267-63.451-8.9-19.906-24.418-32.733-32.879-38.606-8.03-5.574-8.693-12.345-9.244-24.824-.111-2.5-.225-5.087-.437-7.813-1.89-24.332-14.4-47.918-33.835-65.175 14.781-7.509 32.986-10.659 54.283-9.345 15.077.94 22.828-7.138 28.478-13.032q.75-.783 1.488-1.539c11.306-11.532 23.065-15.812 34.953-12.713 19.455 5.066 37.252 29.173 46.444 62.912 7.149 26.269 10.055 61.848 2.956 97.655z" fill="#362a44"/></svg>