<svg id="LinealColor" viewBox="0 0 512 512" xmlns="http://www.w3.org/2000/svg"><path d="m162.178 156.331a53.968 53.968 0 0 0 -4.2-3.827 46.136 46.136 0 0 0 -6.964-4.72c-23.727-13.141-49.479 1.38-57.569 12.9-4.5 6.411-12.085 10.347-20.524 11.323-13.181 1.532-31.142 7.58-38.178 29.513-7.151 21.9 3.858 37.32 13.642 46.286 6.266 5.736 10.1 13.368 9.995 21.2-.183 12.965 10.305 36.788 33.031 43a43.83 43.83 0 0 0 12.353 1.516 56.266 56.266 0 0 0 12.792-1.763l49.084-151.634c-1.14-1.351-2.289-2.625-3.462-3.794z" fill="#2d9179"/><path d="m100.631 338.394a43.836 43.836 0 0 1 9.629-7.886 56.274 56.274 0 0 1 11.753-5.348l122.549 101.906c-.239 1.749-.533 3.438-.9 5.056a48.706 48.706 0 0 1 -4.867 13.193c-13.026 23.79-42.552 25.285-55.545 19.879-7.234-3.009-15.745-2.284-23.4 1.4-11.959 5.752-30.371 10.243-48.042-4.53-17.749-14.681-16.691-33.6-13.217-46.41 2.229-8.2 1.39-16.7-2.888-23.262-7.082-10.856-10.955-36.592 4.928-53.998z" fill="#2d9179"/><path d="m413.576 338.394a43.836 43.836 0 0 0 -9.629-7.886 56.274 56.274 0 0 0 -11.753-5.348l-122.548 101.906c.238 1.749.532 3.438.9 5.056a48.739 48.739 0 0 0 4.867 13.193c13.026 23.79 42.553 25.285 55.545 19.879 7.234-3.009 15.745-2.284 23.4 1.4 11.959 5.752 30.371 10.243 48.042-4.53 17.749-14.681 16.692-33.6 13.217-46.41-2.229-8.2-1.39-16.7 2.888-23.262 7.081-10.856 10.954-36.592-4.929-53.998z" fill="#2d9179"/><path d="m420.881 311.907a43.605 43.605 0 0 1 -12.293 1.51 56.029 56.029 0 0 1 -12.729-1.755l-48.844-150.892c1.131-1.343 2.277-2.608 3.445-3.774a48.432 48.432 0 0 1 11.11-8.5c23.611-13.077 49.236 1.373 57.286 12.831 4.483 6.379 12.026 10.3 20.423 11.268 13.117 1.524 30.989 7.543 37.991 29.367 7.116 21.788-3.839 37.138-13.575 46.059-6.235 5.708-10.051 13.3-9.945 21.1.182 12.895-10.25 36.601-32.869 42.786z" fill="#2d9179"/><path d="m343.24 123.49a43.635 43.635 0 0 1 -2.35 12.16 56 56 0 0 1 -5.59 11.57h-158.6c-.93-1.49-1.78-2.97-2.53-4.44a48.452 48.452 0 0 1 -4.67-13.19c-5.17-26.49 16.47-46.42 29.85-50.55 7.45-2.3 13.5-8.27 17.01-15.96 5.49-12.01 16.72-27.16 39.64-27.1 22.92-.06 34.15 15.09 39.64 27.1 3.51 7.69 9.56 13.66 17.01 15.96 12.33 3.8 31.67 21.03 30.59 44.45z" fill="#2d9179"/><path d="m173.786 143.481c35.097-47.576 89.414-32.443 108.614-18.681a17.865 17.865 0 0 0 13.486 3c33.788-5.841 75.872 14.148 82.881 52.931a16.949 16.949 0 0 0 6.6 10.706c36.306 26.563 32.079 72.556 16.043 96.132a16.948 16.948 0 0 0 -2.1 14.37c7.028 23.691-2.569 60.129-36.49 72.033a17.3 17.3 0 0 0 -10.106 9.159c-19.423 43.121-61.738 55.94-85.279 47.367a35.554 35.554 0 0 0 -22.677-.246c-27.09 8.365-66.479-5.89-79.085-36.03a16.806 16.806 0 0 0 -10.688-9.593c-35.646-10.6-52.757-56.3-43.89-87.508a17.555 17.555 0 0 0 -2.214-14.578c-11.882-17.708-10.661-44.441 5.064-62.728a16.738 16.738 0 0 0 3.829-13.032c-2.919-23.188 12.019-51.01 44.87-56.57a17.379 17.379 0 0 0 11.142-6.732z" fill="#ffd9cf"/><g fill="#362a44"><path d="m482.983 200.124c-6.212-19.364-21.085-30.946-43.014-33.5-6.952-.8-12.858-4-16.2-8.756-10.143-14.437-37.843-27.821-62.634-15.906a77.421 77.421 0 0 0 -12.288-8.863c-.282-.165-.572-.314-.856-.475a48.069 48.069 0 0 0 1.246-8.871c1.173-25.556-19.465-45.721-34.814-50.451-5.564-1.712-10.423-6.347-13.323-12.717-9.154-20.025-24.7-30.6-44.929-30.6h-.305c-20.259 0-35.806 10.582-44.962 30.609-2.905 6.366-7.76 11-13.32 12.718-17.416 5.375-39.535 28.921-33.975 57.409a52.99 52.99 0 0 0 3.518 11.219 11.439 11.439 0 0 1 -6.115 3.055c-1.254.212-2.471.456-3.661.721-1.317-.894-2.653-1.724-4.011-2.469-25.413-14.076-54.625-.283-65.1 14.63-3.345 4.762-9.251 7.954-16.206 8.758-21.926 2.548-36.8 14.13-43 33.464-6.313 19.331-1.048 37.432 15.227 52.348 5.162 4.725 8.077 10.772 8 16.588-.227 16.062 12.6 41.905 37.27 48.66a49.469 49.469 0 0 0 13.035 1.726c.16 2.656.462 5.327.878 8a48.57 48.57 0 0 0 -7.578 6.714c-17.241 18.9-14.264 47.6-5.486 61.049 3.177 4.875 3.947 11.544 2.11 18.3-5.78 21.3-.553 39.415 15.094 52.357 9.033 7.551 19.124 11.346 29.883 11.346a56.235 56.235 0 0 0 24.375-6.036c6.3-3.038 13-3.5 18.375-1.262 16.826 7 48.888 3.039 62.828-22.42a53.8 53.8 0 0 0 5-12.836 28.616 28.616 0 0 1 16.149.811 53.326 53.326 0 0 0 4.77 12c10.028 18.315 29.41 25.513 45.768 25.511a45.177 45.177 0 0 0 17.07-3.071c5.374-2.235 12.071-1.776 18.379 1.263a56.243 56.243 0 0 0 24.379 6.037c10.751 0 20.836-3.791 29.852-11.328 15.671-12.962 20.9-31.074 15.118-52.38-1.837-6.753-1.067-13.422 2.109-18.294 8.779-13.454 11.756-42.152-5.485-61.052a49.813 49.813 0 0 0 -10.844-8.9q.337-2.982.407-5.952c.94.069 1.874.123 2.8.138q.394 0 .788 0a49.51 49.51 0 0 0 13.189-1.731c24.671-6.755 37.5-32.6 37.27-48.657-.079-5.819 2.836-11.866 8-16.593 16.258-14.909 21.523-33.01 15.219-52.311zm-281.863-115.351c8.828-2.725 16.373-9.724 20.7-19.2 7.157-15.658 18.611-23.6 34.08-23.6h.237c15.436 0 26.892 7.938 34.048 23.591 4.325 9.478 11.87 16.477 20.7 19.2 9.371 2.888 27.325 17.575 26.364 38.44v.014a35.08 35.08 0 0 1 -.451 4.1 82.22 82.22 0 0 0 -43.227-4.64 11.727 11.727 0 0 1 -8.9-1.953 75.906 75.906 0 0 0 -19.5-9.572c5.619-1.468 10.127-4.088 14.259-6.5 8.812-5.141 16.422-9.581 34.871-3.242a6 6 0 0 0 3.9-11.348c-23.649-8.126-34.894-1.565-44.818 4.225-3.826 2.245-7.293 4.266-11.383 5.312v-18.274a37.863 37.863 0 0 0 6.523-3.441c3.991-2.475 7.436-4.611 14.325-4.15a6 6 0 0 0 .8-11.972c-10.735-.72-16.931 3.119-21.453 5.923l-.2.122v-7.192a6 6 0 1 0 -12 0v7.184l-.191-.118c-4.522-2.8-10.721-6.642-21.453-5.923a6 6 0 1 0 .8 11.972c6.887-.464 10.335 1.675 14.325 4.15a37.844 37.844 0 0 0 6.524 3.441v18.271c-4.087-1.041-7.551-3.062-11.375-5.292-9.923-5.789-21.169-12.35-44.817-4.225a6 6 0 1 0 3.9 11.348c18.448-6.34 26.058-1.9 34.871 3.242.815.476 1.647.96 2.5 1.442-19.56-.07-41.016 6.283-59.008 25.215-.264-.963-.5-1.924-.679-2.883-4.382-22.435 14.133-40.088 25.728-43.667zm-108.42 221.347c-20.144-5.51-28.589-27.12-28.45-36.92.125-9.238-4.21-18.571-11.892-25.6-12.723-11.66-16.735-25.042-11.915-39.8 4.734-14.756 15.827-23.248 32.967-25.24 10.349-1.2 19.331-6.219 24.643-13.779 5.01-7.131 18.024-15.421 32.378-15.421a35.236 35.236 0 0 1 11.484 1.911 57.205 57.205 0 0 0 -20.473 17.729 56.124 56.124 0 0 0 -10.034 38.943 10.687 10.687 0 0 1 -2.334 8.212c.291-5.7-.777-10.724-1.783-15.331-2.178-9.968-4.058-18.576 7.654-34.175a6 6 0 1 0 -9.595-7.2c-15.014 20-12.235 32.717-9.783 43.94.944 4.325 1.8 8.243 1.531 12.452l-17.381-5.627a37.835 37.835 0 0 0 -1.265-7.257c-1.125-4.559-2.1-8.5.465-14.907a6 6 0 1 0 -11.144-4.45c-3.993 9.994-2.247 17.069-.971 22.235.019.076.034.143.053.217l-6.838-2.213a6 6 0 1 0 -3.7 11.417l6.843 2.215-.178.151c-4.061 3.439-9.622 8.149-12.243 18.586a6 6 0 1 0 11.639 2.923c1.681-6.7 4.776-9.317 8.359-12.351a37.84 37.84 0 0 0 5.283-5.146l17.381 5.626c-2.25 3.571-5.241 6.246-8.542 9.2-8.564 7.658-18.27 16.338-17.822 41.337a6 6 0 0 0 6 5.893h.109a6 6 0 0 0 5.892-6.106c-.35-19.5 6.218-25.377 13.823-32.178 1-.9 2.033-1.822 3.063-2.791-3.257 14.915-.838 30.737 7.6 43.318a11.432 11.432 0 0 1 1.414 9.524 66.686 66.686 0 0 0 -2.187 11.955 37.493 37.493 0 0 1 -10.039-1.283zm92.116 152.68c-8.531-3.548-18.807-2.991-28.189 1.53-15.553 7.48-29.467 6.234-41.381-3.726-11.941-9.876-15.7-23.33-11.185-39.983 2.732-10.054 1.407-20.259-3.64-28-5.359-8.212-9.774-30.985 4.307-46.412l.009-.011c.552-.607 1.134-1.2 1.74-1.774 7.053 22.433 23.051 42.614 46.2 49.5a10.794 10.794 0 0 1 6.182 4.875l-3.551 4.269c-6.251-3.656-12.414-4.7-17.987-5.628-10.063-1.682-18.753-3.134-28.885-19.8a6 6 0 1 0 -10.254 6.232c12.986 21.367 25.83 23.513 37.161 25.407 4.368.73 8.326 1.392 12.136 3.207l-11.679 14.041a37.748 37.748 0 0 0 -7.214-1.527c-4.65-.648-8.667-1.209-13.667-5.969a6 6 0 0 0 -8.273 8.692c7.794 7.42 15.012 8.427 20.283 9.162l.23.033-4.6 5.53a6 6 0 0 0 9.227 7.673l4.595-5.526c.024.073.046.137.071.212 1.684 5.047 3.991 11.961 12.708 18.271a6 6 0 1 0 7.037-9.72c-5.592-4.048-6.876-7.9-8.362-12.35a37.807 37.807 0 0 0 -2.811-6.808l11.682-14.048c2.477 3.414 3.849 7.182 5.362 11.342 3.929 10.8 8.382 23.032 31.759 31.9a6 6 0 1 0 4.257-11.218c-18.237-6.922-21.251-15.2-24.739-24.789-1.932-5.308-4.078-11.175-8.81-16.653l.46-.553c15.223 22.617 44.935 33.886 69.478 31.32a38.816 38.816 0 0 1 -1.954 4.172c-10.977 20.055-36.499 21.791-47.703 17.127zm70.084-36.967a43.89 43.89 0 0 0 -12.952 2c-23.683 7.315-60.026-5.263-71.391-32.435a22.592 22.592 0 0 0 -14.457-12.979c-31.8-9.454-47.672-51.324-39.613-79.688a23.409 23.409 0 0 0 -2.992-19.489c-10.7-15.95-8.722-39.665 4.607-55.165a22.7 22.7 0 0 0 5.213-17.629c-2.564-20.366 10.478-44.681 39.7-49.626a23.183 23.183 0 0 0 14.909-9.051c32.047-43.442 81.925-30.055 99.757-17.279a23.625 23.625 0 0 0 17.935 4.022c30.685-5.3 69.26 13.032 75.549 47.826a22.77 22.77 0 0 0 8.932 14.429c33.718 24.669 28.613 66.762 14.547 87.443a22.78 22.78 0 0 0 -2.878 19.381c5.731 19.318-.649 53.117-32.546 64.31a23.328 23.328 0 0 0 -13.54 12.312c-10.39 23.066-26.39 34.427-37.982 39.9-13.577 6.4-28.657 7.962-39.354 4.066a39.155 39.155 0 0 0 -13.444-2.348zm152.363-79.633.009.011c14.081 15.427 9.666 38.2 4.306 46.415-5.046 7.739-6.371 17.944-3.639 28 4.519 16.656.756 30.11-11.209 40.006-11.891 9.94-25.805 11.186-41.354 3.707a37.639 37.639 0 0 0 -16.276-3.849 30.987 30.987 0 0 0 -11.919 2.312c-11.2 4.66-36.726 2.926-47.715-17.144a37.17 37.17 0 0 1 -1.683-3.531c1.206.074 2.427.122 3.672.122 20.516 0 45.981-10.152 63.928-34.008l2.078 2.5c-4.732 5.478-6.878 11.345-8.81 16.653-3.488 9.587-6.5 17.867-24.739 24.789a6 6 0 1 0 4.257 11.218c23.377-8.871 27.83-21.107 31.759-31.9 1.513-4.16 2.885-7.928 5.362-11.342l11.684 14.041a37.807 37.807 0 0 0 -2.811 6.808c-1.486 4.455-2.77 8.3-8.362 12.35a6 6 0 1 0 7.037 9.72c8.717-6.31 11.024-13.224 12.708-18.271.025-.075.047-.139.071-.212l4.595 5.526a6 6 0 0 0 9.227-7.673l-4.6-5.53.23-.033c5.271-.735 12.489-1.742 20.283-9.162a6 6 0 0 0 -8.273-8.692c-5 4.76-9.017 5.321-13.667 5.969a37.748 37.748 0 0 0 -7.216 1.525l-11.68-14.047c3.81-1.815 7.768-2.477 12.136-3.207 11.331-1.894 24.175-4.04 37.161-25.407a6 6 0 0 0 -10.254-6.232c-10.132 16.669-18.822 18.121-28.885 19.8-5.573.932-11.736 1.972-17.987 5.628l-4.439-5.337c1.546-2.727 3.013-5.577 4.367-8.584a11.271 11.271 0 0 1 6.572-5.917c20.812-7.3 33.86-23.457 39.424-41.272a36.079 36.079 0 0 1 4.652 4.25zm52.381-98.607c-7.684 7.034-12.019 16.367-11.894 25.608.139 9.805-8.306 31.411-28.452 36.921h-.015a38.1 38.1 0 0 1 -10.6 1.293c-1.249-.02-2.525-.1-3.822-.233a58.845 58.845 0 0 0 -1.6-7 10.826 10.826 0 0 1 1.3-9.219c7.92-11.645 13.434-29.015 12.766-47.19q.914.831 1.81 1.63c7.605 6.8 14.173 12.674 13.823 32.178a6 6 0 0 0 5.892 6.106h.109a6 6 0 0 0 6-5.893c.448-25-9.258-33.679-17.822-41.337-3.3-2.953-6.292-5.628-8.542-9.2l17.381-5.626a37.84 37.84 0 0 0 5.283 5.146c3.583 3.034 6.678 5.655 8.359 12.351a6 6 0 0 0 11.639-2.923c-2.621-10.437-8.182-15.147-12.243-18.586l-.178-.151 6.843-2.215a6 6 0 1 0 -3.7-11.417l-6.838 2.213c.019-.074.034-.141.053-.217 1.276-5.166 3.022-12.241-.971-22.235a6 6 0 0 0 -11.144 4.452c2.562 6.411 1.59 10.348.465 14.907a37.835 37.835 0 0 0 -1.265 7.257l-17.381 5.627c-.268-4.209.587-8.127 1.531-12.452 2.452-11.223 5.231-23.945-9.783-43.94a6 6 0 0 0 -9.595 7.2c11.712 15.6 9.832 24.207 7.654 34.175-.222 1.018-.447 2.06-.663 3.121a75.237 75.237 0 0 0 -16.867-16.865 10.824 10.824 0 0 1 -4.21-6.878 65.509 65.509 0 0 0 -13.034-28.901c18.472-6.452 37.667 4.438 44.014 13.472 5.312 7.56 14.294 12.582 24.639 13.779 17.144 1.992 28.237 10.484 32.98 25.27 4.811 14.73.799 28.112-11.922 39.77z"/><path d="m270.332 331.615a5.942 5.942 0 0 0 .907-.069c9.413-1.427 18.808-7.736 24.518-16.464a6 6 0 0 0 -10.042-6.57c-3.78 5.778-10.32 10.267-16.276 11.17a6 6 0 0 0 .893 11.933z"/><path d="m294.467 178.306c13.781-3.048 37.073 3.069 43.317 25.895a18.675 18.675 0 0 0 9.073 11.5 6 6 0 0 0 5.686-10.568 6.622 6.622 0 0 1 -3.184-4.1c-7.516-27.474-35.691-39.272-57.486-34.445a6 6 0 1 0 2.594 11.716z"/><path d="m152.907 254.913a6 6 0 1 0 -8.607-8.363c-15.555 16.01-20.319 46.182-.889 67.01a6.627 6.627 0 0 1 1.818 4.865 6 6 0 0 0 5.633 6.345c.121.007.242.011.361.011a6 6 0 0 0 5.984-5.644 18.671 18.671 0 0 0 -5.022-13.763c-16.142-17.304-9.112-40.34.722-50.461z"/><path d="m352.013 320.929c-.655 8.035-6.252 14.846-11.508 18.032a6 6 0 1 0 6.221 10.262c7.289-4.419 16.18-14.225 17.247-27.32a18.535 18.535 0 0 1 5.276-11.543c10.758-10.847 14.524-29.479 8.394-41.533a6 6 0 1 0 -10.7 5.439c3.76 7.395.8 20.571-6.218 27.644a30.547 30.547 0 0 0 -8.712 19.019z"/><path d="m205.172 168.8c7.414-10.362 26.754-14.674 42.653-4.291a6 6 0 1 0 6.561-10.047c-21.9-14.3-48.172-7.741-58.974 7.357a5.332 5.332 0 0 1 -3.689 2.244c-18.445 2.119-33.82 16.36-36.557 33.861a6 6 0 1 0 11.855 1.855c1.889-12.074 13.1-22.3 26.072-23.794a17.352 17.352 0 0 0 12.079-7.185z"/><path d="m278.321 382.779a6 6 0 1 0 -9.905-6.774 19.853 19.853 0 0 1 -13.543 8.475c-8.375 1.45-17.483-1.222-22.153-4.612a17.715 17.715 0 0 0 -13.758-2.968c-8.376 1.626-18.838-3-21.138-13.309a6 6 0 1 0 -11.712 2.612c3.869 17.348 21.255 25.174 35.138 22.476a5.693 5.693 0 0 1 4.421.9c5.447 3.953 14.537 7.31 24.315 7.31a40.7 40.7 0 0 0 6.935-.586 31.856 31.856 0 0 0 21.4-13.524z"/><path d="m213.319 259.68a6 6 0 0 0 -7.9-9.036c-9.2 8.037-10.141 23.35-5.235 32.066a6 6 0 0 0 10.458-5.887c-2.512-4.468-1.772-13.255 2.677-17.143z"/><path d="m276.056 231.69c5.68-1.631 13.464 2.514 15.853 7.05a6 6 0 1 0 10.616-5.594c-4.663-8.85-18.044-16.361-29.781-12.99a6 6 0 0 0 3.312 11.534z"/></g></svg>