<svg id="LinealColor" viewBox="0 0 512 512" xmlns="http://www.w3.org/2000/svg"><path d="m315.21 138.6h-118.429c-25.339 5.374-31.022 47.259-20.778 86.3a116.092 116.092 0 0 1 3.907 32.666c-.58 20.723 12.557 49.577 17.2 62.63a51.4 51.4 0 0 1 2.805 20.485 81.034 81.034 0 0 0 6.6 36.82 49.538 49.538 0 0 1 .964 36.448c-3.5 9.613-8.023 19.793-12.006 28.219a27.6 27.6 0 0 0 6.948 32.668 27.05 27.05 0 0 0 22.148 6.149c40.613-6.755 60.258-39.506 68.835-60.553a167.128 167.128 0 0 1 15.728-29.342c7.187-10.82 11.694-24.869 12.788-38.688a166.918 166.918 0 0 1 9.681-44.3 95.767 95.767 0 0 0 5.143-39.8 197.507 197.507 0 0 1 2.307-52.937c6.749-36.059-.558-71.826-23.841-76.765z" fill="#ff2760"/><path d="m286.755 124.614a21.785 21.785 0 0 1 -15.16-19.573c-2.418-39.346-19.046-58.692-32.379-67.036a14.713 14.713 0 0 0 -17.751 1.425c-7.422 6.867-2.472 16.67 5.371 16.749a9.38 9.38 0 0 1 7.9 4.4c10.173 16.461 8.339 35.481 6.067 46.117a23.4 23.4 0 0 1 -14.482 17.13c-11.385 4.266-25.467 4.4-28.833 12.054a2.023 2.023 0 0 0 1.793 2.781c8.251.487 23.507 4.212 28.753 11.5a2.023 2.023 0 0 0 2.909.4c8.271-6.508 20.108-8.175 25.058-8.175s16.788 1.667 25.059 8.175a2.023 2.023 0 0 0 2.909-.4c5.246-7.292 20.5-11.017 28.752-11.5a2.034 2.034 0 0 0 1.736-2.859c-3.332-7.079-16.406-7.677-27.702-11.188z" fill="#196868"/><g fill="#362a44"><path d="m344.177 163.712c-4.307-15.558-12.787-26.023-24.074-29.94-.054-.138-.1-.279-.16-.415-3.6-7.865-13.124-10.052-22.329-12.167-3.037-.7-6.177-1.419-9.078-2.32a15.881 15.881 0 0 1 -10.953-14.211c-3-48.837-27.262-67.429-37.554-73.155a19.083 19.083 0 0 0 -27.599 11.296 15.114 15.114 0 0 0 14.5 19.37 3.177 3.177 0 0 1 2.7 1.548c9.2 14.888 7.267 32.552 5.3 41.757a17.483 17.483 0 0 1 -10.709 12.719 92.724 92.724 0 0 1 -10.661 3c-8.9 2.133-18.095 4.34-21.569 12.272-.042.1-.07.2-.108.3-6.981 2.43-12.923 7.39-17.329 14.536-10.752 17.435-12.418 47.372-4.349 78.128a110.061 110.061 0 0 1 3.713 30.975c-.508 18.163 8.44 41.183 14.36 56.417 1.273 3.272 2.371 6.1 3.188 8.392a45.21 45.21 0 0 1 2.469 18.1 87.5 87.5 0 0 0 7.065 39.553 43.331 43.331 0 0 1 .843 32.029c-2.919 8-6.887 17.328-11.794 27.71a33.7 33.7 0 0 0 8.45 39.773 32.849 32.849 0 0 0 21.523 7.985 33.714 33.714 0 0 0 5.531-.458c44.092-7.334 64.918-43.376 73.408-64.207a161.962 161.962 0 0 1 15.169-28.287c7.563-11.387 12.583-26.526 13.771-41.535a161.016 161.016 0 0 1 9.334-42.708 101.026 101.026 0 0 0 5.488-42.368 191.982 191.982 0 0 1 2.226-51.33c3.601-19.223 3.324-37.96-.772-52.759zm-127.824-30.85a101.634 101.634 0 0 0 12.072-3.435 29.2 29.2 0 0 0 18.233-21.444c2.349-10.966 4.586-32.12-6.821-50.577a15.1 15.1 0 0 0 -12.906-7.241 3.113 3.113 0 0 1 -2.988-3.991 7.084 7.084 0 0 1 10.257-4.184c8.566 4.766 28.774 20.486 31.411 63.406a27.941 27.941 0 0 0 19.368 24.933c3.334 1.037 6.7 1.81 9.954 2.557 2.04.468 4.255.977 6.318 1.55-6.7 1.626-14.427 4.5-19.525 9.253-9.072-5.712-20.144-7.314-25.722-7.314s-16.649 1.6-25.721 7.314c-5.174-4.823-13.053-7.713-19.823-9.326 1.888-.541 3.94-1.031 5.893-1.501zm116.805 81.4a203.941 203.941 0 0 0 -2.388 54.544 90.085 90.085 0 0 1 -4.8 37.232 173.067 173.067 0 0 0 -10.03 45.89c-1.032 13.038-5.334 26.1-11.8 35.842a173.972 173.972 0 0 0 -16.286 30.4c-7.544 18.513-25.926 50.522-64.264 56.9a21.016 21.016 0 0 1 -17.241-4.771 21.66 21.66 0 0 1 -5.445-25.564c5.064-10.713 9.174-20.379 12.218-28.728a55.28 55.28 0 0 0 -1.087-40.867 75.46 75.46 0 0 1 -6.128-34.079 57.115 57.115 0 0 0 -3.14-22.874c-.874-2.457-2-5.358-3.307-8.716-5.571-14.334-13.991-36-13.55-51.735a122.054 122.054 0 0 0 -4.1-34.356c-7.156-27.27-5.995-54.269 2.955-68.783 3.414-5.537 7.835-8.927 13.135-10.091a8.173 8.173 0 0 0 1.016.126c8.775.515 20.893 4.347 24.252 9.025a8.054 8.054 0 0 0 5.385 3.262 7.913 7.913 0 0 0 1.107.078 8.089 8.089 0 0 0 4.987-1.725c7.184-5.658 17.851-6.9 21.355-6.9s14.172 1.238 21.358 6.9a8.013 8.013 0 0 0 11.478-1.618c3.354-4.672 15.467-8.5 24.239-9.023a8.176 8.176 0 0 0 1.019-.128c20.034 4.397 24.782 39.183 19.062 69.761z"/><path d="m297.925 356.292a6 6 0 0 1 -5.932-6.951c.883-5.506 1.319-10.123 1.739-14.589a149.386 149.386 0 0 1 3.068-20.952 68.106 68.106 0 0 1 4.19-11.7c2.867-6.674 5.574-12.977 5.051-21.685a94.946 94.946 0 0 0 -1.376-9.973c-1.091-6.333-2.219-12.881-1.368-19.091a202.977 202.977 0 0 1 4.345-21.066c3.15-12.884 5.871-24.012 3.039-35.607a6 6 0 0 1 11.658-2.847c3.527 14.444.337 27.491-3.041 41.3a193.942 193.942 0 0 0 -4.112 19.843c-.6 4.373.369 9.993 1.305 15.427a104.891 104.891 0 0 1 1.529 11.29c.694 11.549-2.865 19.832-6 27.141a58.251 58.251 0 0 0 -3.517 9.627 139.619 139.619 0 0 0 -2.821 19.415c-.44 4.657-.894 9.472-1.839 15.363a6 6 0 0 1 -5.918 5.055z"/><path d="m312.252 173.462a5.951 5.951 0 0 1 -5.554-3.86 20.9 20.9 0 0 0 -3.295-5.765 5.918 5.918 0 0 1 -.506-6.814 6.025 6.025 0 0 1 9.879-.678 32.7 32.7 0 0 1 5.172 9.1 5.987 5.987 0 0 1 -5.696 8.017z"/></g></svg>