<svg id="LinealColor" viewBox="0 0 512 512" xmlns="http://www.w3.org/2000/svg"><path d="m292.912 54.856a11.208 11.208 0 0 1 12.162 14.01c-4.315 16.5-2.669 54.7-1.457 73.54h-63.1c-1.136-68.322 29.483-84.836 52.395-87.55z" fill="#6db53e"/><path d="m283.449 75.863a27.449 27.449 0 0 1 -54.9 0c0-15.16 12.289-37.3 27.449-37.3s27.451 22.137 27.451 37.3z" fill="#4e963c"/><path d="m283.449 75.863a27.449 27.449 0 0 1 -54.9 0c0-15.16 12.289-37.3 27.449-37.3s27.451 22.137 27.451 37.3z" fill="#4e963c"/><path d="m357.307 218.823c-27.322-17.846-52.159-35.75-53.69-79h-95.234c-1.531 43.25-26.368 61.154-53.69 79-51.974 33.948-89.335 70.718-88.769 129.419.459 47.525 36.692 85.72 113.455 96.4 17.835 8.327 36.318 13.328 57.563 12.765l38.537-1.239c20.913.554 39.393-9.109 56.335-11.415 77.316-10.524 113.8-48.819 114.262-96.511.566-58.701-36.795-95.471-88.769-129.419z" fill="#ffc7c7"/><path d="m357.307 218.823c-27.322-17.846-52.159-35.75-53.69-79h-64.587l-2.088 318.64 38.116.834c21.684.575 36.01-5.23 58.622-14.8 76.037-10.884 111.939-48.945 112.4-96.251.562-58.705-36.799-95.475-88.773-129.423z" fill="#ffe4e1"/><path d="m382.126 331.588c-9.729-73.66-99.546-94.852-99.546-189.18a209.757 209.757 0 0 0 -33.48-4.308c4.438 21.7-48.04 172.311-48.04 172.311l29.625 148.889 86.465-11.671c53.806-20.835 70.375-75.16 64.976-116.041z" fill="#fff5f3"/><path d="m254.027 265.572c8.942-34.446 2.057-67.927 3.9-123.166h-28.5c0 94.328-89.817 115.52-99.546 189.18-5.962 45.144 14.518 98.508 81.718 115.89l53.942 8.69c-30.263-56.82-27.816-127.792-11.514-190.594z" fill="#ffe4e1"/><path d="m292.912 54.856a11.208 11.208 0 0 1 12.162 14.01c-4.315 16.5-2.669 54.7-1.457 73.54h-63.1c-1.136-68.322 29.483-84.836 52.395-87.55z" fill="#6db53e"/><path d="m219.088 54.856a11.208 11.208 0 0 0 -12.162 14.01c4.315 16.5 2.669 54.7 1.457 73.54h63.1c1.136-68.322-29.483-84.836-52.395-87.55z" fill="#8ecc2e"/><path d="m219.088 54.856a11.208 11.208 0 0 0 -12.162 14.01c4.315 16.5 2.669 54.7 1.457 73.54h63.1c1.136-68.322-29.483-84.836-52.395-87.55z" fill="#8ecc2e"/><path d="m357.307 218.823c-27.322-17.846-52.159-35.75-53.69-79h-95.234c-1.531 43.25-26.368 61.154-53.69 79-51.974 33.948-89.335 70.718-88.769 129.419.459 47.525 36.692 85.72 113.455 96.4 17.835 8.327 36.318 13.328 57.563 12.765l38.537-1.239c20.913.554 39.393-9.109 56.335-11.415 77.316-10.524 113.8-48.819 114.262-96.511.566-58.701-36.795-95.471-88.769-129.419z" fill="#ffc7c7"/><path d="m357.307 218.823c-27.322-17.846-52.159-35.75-53.69-79h-64.587l-2.088 318.64 38.116.834c21.684.575 36.01-5.23 58.622-14.8 76.037-10.884 111.939-48.945 112.4-96.251.562-58.705-36.799-95.475-88.773-129.423z" fill="#ffe4e1"/><path d="m382.126 331.588c-9.729-73.66-98.677-97.437-98.677-191.765 0 0-16.6-.987-34.353-1.726 4.438 21.7-48.04 172.311-48.04 172.311l29.629 148.892 86.465-11.671c53.806-20.835 70.375-75.16 64.976-116.041z" fill="#fff5f3"/><path d="m254.027 265.572c8.942-34.446 2.057-67.927 3.9-123.166h-28.5c0 94.328-89.817 115.52-99.546 189.18-5.962 45.144 14.518 98.508 81.718 115.89l53.942 8.69c-30.263-56.82-27.816-127.792-11.514-190.594z" fill="#ffe4e1"/><path d="m311.226 446.669c-13.466 0-14.472-5.032-27.937-5.032s-13.455 10.063-26.92 10.063-15.478-10.064-28.933-10.064-12.458 5.032-25.923 5.032c-12.13 0-15.758-3.761-26.194-4.507a1.517 1.517 0 0 0 -1.163 2.611c7.168 6.864 30.405 24.259 81.844 24.259s74.673-17.392 81.842-24.258a1.517 1.517 0 0 0 -1.165-2.61c-10.305.751-13.331 4.506-25.451 4.506z" fill="#ff8a8a"/><path d="m452.076 348.3c.279-28.936-8.193-54.344-25.9-77.677-14.361-18.92-35.2-36.977-65.586-56.824-28.124-18.369-48.375-34.359-50.8-70.8-.074-1.109-.486-6.052-.521-6.68-.923-16.633-2.244-51.181 1.615-65.931a17.209 17.209 0 0 0 -18.678-21.488 64.781 64.781 0 0 0 -10.125 2.011c-5.661-9.627-14.75-18.35-26.081-18.35-6.972 0-13.78 3.346-19.706 9.683a6.153 6.153 0 0 0 -.307 8.271 6 6 0 0 0 8.913.095c2.542-2.759 6.532-6.049 11.1-6.049 5.515 0 10.884 4.881 14.774 10.882a55.64 55.64 0 0 0 -8.063 5.221 6.116 6.116 0 0 0 -1.574 7.935 6 6 0 0 0 8.835 1.62 46.572 46.572 0 0 1 23.538-9.392 5.329 5.329 0 0 1 4.54 1.6 5.2 5.2 0 0 1 1.22 4.918c-4.61 17.623-2.793 57.109-1.707 74.4.023.358.326 2.957.354 3.3 3.561 44.464 32.6 63.445 56.108 78.8 45.033 29.414 86.625 64.835 86.051 124.338-.21 21.762-8.23 40.43-23.839 55.484-15.085 14.55-36.64 25.045-63.759 31.265a1 1 0 0 1 -.878-1.73c30.754-26.627 41.081-67.521 36.474-102.4-4.623-35-26.566-59.011-47.787-82.234-24.83-27.173-50.473-55.261-51.65-102.753a6 6 0 0 0 5.859-6.224 6.164 6.164 0 0 0 -6.243-5.769h-73.364c1-19.429 1.842-51.181-2.159-66.475a5.2 5.2 0 0 1 1.109-4.794 5.142 5.142 0 0 1 4.543-1.74c27.98 3.315 44.145 26.081 46.748 65.837a6 6 0 1 0 11.974-.784c-4.028-61.54-37.635-74.638-57.31-76.97a17.21 17.21 0 0 0 -18.673 21.488c3.675 14.047 2.652 46.054 1.749 63.438-.081 1.563-.587 8.173-.666 9.335-2.478 36.329-22.71 52.3-50.792 70.641-30.386 19.847-51.225 37.9-65.586 56.824-17.709 23.333-26.181 48.741-25.9 77.677a88.267 88.267 0 0 0 27.508 64.005c19.065 18.388 47.131 30.823 82.71 36.929 8.27 7.861 32.956 25.8 85.858 25.8 52.867 0 77.555-17.913 85.84-25.782 35.589-6.109 63.66-18.553 82.728-36.945a88.267 88.267 0 0 0 27.506-64.006zm-200.258-202.477c-.518 19.166-.027 35.748.411 50.478.78 26.227 1.395 46.943-4.009 67.764-18.44 71.038-18.45 128.656 6.624 181.568-4-.319-6.443-1.893-9.676-4-4.11-2.674-9.226-6-17.731-6a35.189 35.189 0 0 0 -15.209 2.953c-.534.215-1.047.422-1.565.617a8.438 8.438 0 0 1 -5.548.127c-58.851-19-74.332-68.8-69.293-106.96 4.129-31.258 23.86-52.851 44.749-75.71 26.392-28.881 53.645-58.74 54.794-110.841zm-179.894 202.361c-.574-59.5 41.018-94.924 86.051-124.338 23.365-15.262 52.182-34.127 56.023-78.023h9.365c-1.18 47.488-26.821 75.574-51.65 102.746-21.221 23.223-43.164 47.236-47.787 82.234-4.558 34.515 5.765 77.491 44.336 103.981a1 1 0 0 1 -.752 1.814c-30.894-5.912-55.211-16.981-71.747-32.93-15.609-15.054-23.629-33.722-23.839-55.484zm184.076 114.848c-27.071 0-45.93-5.028-58.429-10.493 1.229.084 2.537.13 3.942.13a35.181 35.181 0 0 0 15.209-2.953 23.7 23.7 0 0 1 10.715-2.079c4.946 0 7.565 1.7 11.189 4.06 4.112 2.675 9.229 6 17.743 6 8.729 0 13.348-3.453 17.059-6.228 3.089-2.31 5.13-3.836 9.861-3.836a31.3 31.3 0 0 1 12 2.183 42.814 42.814 0 0 0 15.939 2.849c1.087 0 2.113-.028 3.086-.079-12.501 5.449-31.327 10.446-58.314 10.446zm63.278-23.632a13.316 13.316 0 0 1 -4.318 1.047c-1.466.11-3.168.218-3.734.218a31.3 31.3 0 0 1 -12-2.183 42.839 42.839 0 0 0 -15.939-2.849 24.815 24.815 0 0 0 -16 5.452c-23.683-46.942-26.045-102.375-7.45-174.009 5.835-22.48 5.2-43.952 4.389-71.136-.436-14.649-.924-31.152-.4-50.121h12.811c1.149 52.1 28.4 81.96 54.794 110.841 20.889 22.859 40.62 44.452 44.749 75.71 5.177 39.218-10.555 86.856-56.902 107.03z" fill="#362a44"/></svg>