<svg id="animal-shelter" height="512" viewBox="0 0 15 15" width="512" xmlns="http://www.w3.org/2000/svg"><path d="m7.528.895 1.472 1.105h1l1.473-1.104c.216502-.16226622.527-.0075613.527.263v3.341c0 .722-.522 1.184-1 1.573v3.927l.8 2.4.706.353c.302922.151551.494181.461283.494.8 0 .247-.2.447-.447.447h-8.303c-1.233 0-2.25-1-2.25-2.287 0-2.1705412.4530836-3.7829775.745-4.868.1460836-.5429775.2902907-.9503921.393-1.231.0576028-.1573744.115276-.3029251.192-.449.4488405-.8545475 1.7443666-.2093883 1.342.668-.0487749.1063571-.0941642.2182046-.133.317-.0912482.2321288-.213996.5930011-.346 1.084-.245996.9150011-.519 2.287-.635 4.133.368-2.06 2.422-4.128 4.077-5.609-.345-.326-.634-.72-.634-1.258v-3.342c0-.2705613.3106215-.42543084.527-.263z"/></svg>