<svg id="LinealColor" viewBox="0 0 512 512" xmlns="http://www.w3.org/2000/svg"><path d="m341 256-9.1 43.031c-2.06 17.194-15.4 34.031-26.123 42.269a6.069 6.069 0 0 1 -9.675-3.975 262.867 262.867 0 0 1 -1.636-54.725l-67.232-13.95c5.791 37.915-1.447 59.066-8.673 79.477a6.081 6.081 0 0 1 -9.444 2.792c-11.262-8.66-31.063-24.982-36.828-51.888l-38.183 11.683c7.85 32.313 31.739 56.727 44.544 78.864 16.12 27.868 8.672 47.327 12.574 72.248a15.687 15.687 0 0 0 15.528 13.188h90.58a15.686 15.686 0 0 0 15.527-13.188c3.9-24.921-3.545-44.38 12.575-72.248 12.8-22.137 39.4-59.342 44.33-100.965z" fill="#aaba4a"/><path d="m342.14 319.682q-6.57-1.845-13.48-4.54a184.706 184.706 0 0 1 -22.21-10.5 20.056 20.056 0 0 0 -7.07-2.31l-74.01-9.79a20.426 20.426 0 0 0 -15.01 4.02q-1.785 1.35-3.59 2.61a113.026 113.026 0 0 1 -16.49 9.7c-77.14 36.991-158.18-36.359-122.77-102.9a20.842 20.842 0 0 0 1.6-16.24c-19.36-59.23 33.56-113.58 79.46-115.92a19.818 19.818 0 0 0 15.31-8.812c28.69-42.02 106.13-55.07 153.77-12.56a19.813 19.813 0 0 0 13.36 5.15c49.83-.5 107.4 46.779 100.54 105.56a20.164 20.164 0 0 0 4.6 15.59c46.21 53.302 6.77 169.412-94.01 140.942z" fill="#196868"/><path d="m375.948 166.813c-7.124-47.013-62.783-69.521-97.2-50.006a13.867 13.867 0 0 1 -12.5.664c-38.4-17.039-91.549 14.172-93.257 66.853a14.081 14.081 0 0 1 -4.238 9.761c-38.62 36.935-8.711 117.82 54.2 102.8a14.11 14.11 0 0 1 12.835 3.518c29.155 27.072 79.051 27.521 102.952-3a14.079 14.079 0 0 1 10.281-5.432c60.146-3.28 80.326-80.449 32.536-115.826a14.225 14.225 0 0 1 -5.609-9.332z" fill="#196868"/><g fill="#362a44"><path d="m400.671 204.153a6 6 0 0 1 -5.306-3.191 59.448 59.448 0 0 0 -17.378-19.994 20.131 20.131 0 0 1 -7.971-13.257c-2.955-19.5-15.5-35.957-34.427-45.151-18.211-8.848-38.857-9.055-53.881-.533a19.985 19.985 0 0 1 -17.889.927 50.886 50.886 0 0 0 -26.166-3.822 6 6 0 0 1 -1.306-11.929 62.884 62.884 0 0 1 32.339 4.783 7.842 7.842 0 0 0 7.105-.4c18.407-10.438 43.332-10.371 65.042.18 22.531 10.946 37.491 30.683 41.047 54.146a8.214 8.214 0 0 0 3.247 5.411 71.336 71.336 0 0 1 20.84 24.017 6 6 0 0 1 -5.3 8.812z"/><path d="m440.685 174.812a14.183 14.183 0 0 1 -3.176-10.965c3.077-26.361-5.877-52.723-25.212-74.228-21.143-23.519-51.912-38.032-80.505-38.032-.28 0-.564 0-.844 0h-.13a13.84 13.84 0 0 1 -9.173-3.627c-23.645-21.092-56.458-30.836-90.032-26.74-30.815 3.766-57.988 18.867-72.693 40.4a13.735 13.735 0 0 1 -10.656 6.2c-26.507 1.351-54.891 18.609-72.313 43.966-16.881 24.57-21.335 52.914-12.544 79.814a14.916 14.916 0 0 1 -1.194 11.556c-16.213 30.461-10.782 65.544 14.169 91.569a99.093 99.093 0 0 0 51.644 28.144c1.244.25 2.49.469 3.738.67 6.758 18.527 17.921 34.307 27.979 48.5 5.118 7.224 9.953 14.046 13.713 20.546 10.093 17.449 10.224 31.449 10.362 46.271a158.983 158.983 0 0 0 1.479 23.9 21.561 21.561 0 0 0 21.454 18.26h90.581a21.562 21.562 0 0 0 21.455-18.26 159.115 159.115 0 0 0 1.479-23.9c.138-14.822.269-28.822 10.361-46.271 1.991-3.44 4.376-7.343 6.9-11.476 8.688-14.214 19.3-31.636 27.273-51.258q3.784.278 7.488.281a87.991 87.991 0 0 0 31.86-5.76c16.781-6.465 31.029-18.349 41.2-34.366 22.952-36.129 20.952-85.652-4.663-115.194zm-5.46 108.759c-19.225 30.265-52.561 41.321-91.463 30.329-3.176-.892-6.444-1.951-9.75-3.157a62.359 62.359 0 0 0 9.453-9.645 8.071 8.071 0 0 1 5.883-3.14c19.631-1.07 37.012-9.717 48.943-24.346a71.63 71.63 0 0 0 15.052-55.786 6 6 0 0 0 -11.868 1.772 60.418 60.418 0 0 1 -12.485 46.43c-6.91 8.474-19.511 18.815-40.3 19.948a20.069 20.069 0 0 0 -14.678 7.724c-10.345 13.21-27.113 20.794-46 20.808a6 6 0 0 0 0 12c.268 0 .531-.018.8-.021.342 3.793.781 7.7 1.343 11.674a11.955 11.955 0 0 0 7.4 9.478 12.151 12.151 0 0 0 4.6.912 11.905 11.905 0 0 0 7.277-2.5 82.789 82.789 0 0 0 20.625-23.98c3.539 1.287 7.042 2.418 10.452 3.375q6.065 1.715 11.955 2.794c-7.5 17.642-17.187 33.533-25.174 46.6-2.564 4.2-4.987 8.159-7.05 11.727-11.676 20.183-11.827 36.442-11.974 52.166a149.5 149.5 0 0 1 -1.335 22.158 9.74 9.74 0 0 1 -9.6 8.115h-90.58a9.74 9.74 0 0 1 -9.6-8.115 149.768 149.768 0 0 1 -1.335-22.158c-.146-15.724-.3-31.983-11.973-52.166-4.037-6.98-9.028-14.022-14.311-21.476-8.577-12.1-18-25.423-24.373-40.33a101.591 101.591 0 0 0 29.063-3.552c8.464 15.614 20.895 26.506 31.236 34.458a12.081 12.081 0 0 0 18.758-5.545c4.294-12.127 8.92-25.263 10.515-42.678a82.24 82.24 0 0 0 34.419 16.921 6 6 0 1 0 2.678-11.7 69.79 69.79 0 0 1 -31.958-16.669 20.061 20.061 0 0 0 -18.312-4.957c-16.419 3.921-31.359.914-43.2-8.695a6 6 0 0 0 -7.562 9.318 58.34 58.34 0 0 0 19.473 10.482c-.86.441-1.719.891-2.584 1.3-40.837 19.584-80.977 5.551-102.643-17.042-21.241-22.151-25.93-51.9-12.236-77.629a26.967 26.967 0 0 0 2.006-20.922c-7.6-23.262-3.687-47.869 11.029-69.287 15.382-22.371 40.124-37.592 63.029-38.764a25.965 25.965 0 0 0 19.965-11.42c12.783-18.722 36.795-31.9 64.233-35.252 30.145-3.683 59.518 4.987 80.589 23.788a25.748 25.748 0 0 0 17.413 6.671h.737c25.279 0 52.636 13 71.566 34.055 17 18.906 24.889 41.924 22.218 64.809a26.2 26.2 0 0 0 6.025 20.221c22.276 25.694 23.827 69.071 3.609 100.899zm-118.8 37.578a69.79 69.79 0 0 1 -14.281 15.4.135.135 0 0 1 -.1-.06c-.528-3.736-.936-7.417-1.257-11a73.558 73.558 0 0 0 15.639-4.34zm-107.175-16.415a71.223 71.223 0 0 0 13.816-1.725c-1.13 17.571-5.695 30.5-10.176 43.152h-.116c-5.866-4.51-18.382-14.177-26.936-28.814 2.36-.938 4.705-1.95 7.027-3.064a119.1 119.1 0 0 0 16.385-9.549z"/><path d="m160.872 276.9a6 6 0 0 1 -5.181-2.964c-14.133-24.079-15.608-60.728 8.919-84.184a8.045 8.045 0 0 0 2.388-5.62 79.8 79.8 0 0 1 26.623-57.448 6 6 0 1 1 8 8.941 67.908 67.908 0 0 0 -22.632 48.9 19.965 19.965 0 0 1 -6.088 13.9c-20.023 19.15-18.609 49.427-6.864 69.438a6 6 0 0 1 -5.168 9.038z"/><circle cx="311.491" cy="139.906" r="7.565"/><circle cx="340.111" cy="158.319" r="7.565"/><circle cx="278.699" cy="162.312" r="7.565"/><circle cx="339.41" cy="194.651" r="7.565"/><circle cx="311.541" cy="175.691" r="7.565"/></g></svg>