<?xml version="1.0"?>
<svg xmlns="http://www.w3.org/2000/svg" id="LinealColor" viewBox="0 0 512 512"><path d="M189.8,208.321a87.794,87.794,0,0,0,37.77,33.208,66.505,66.505,0,0,0,56.86,0,87.8,87.8,0,0,0,37.77-33.208,104.223,104.223,0,0,0,13.531-35.487,8.507,8.507,0,0,0-1.778-7.061,8.2,8.2,0,0,0-6.339-3.015h0a8.2,8.2,0,0,0-1.474.134c5.714-19.8,2.189-40.715.238-49.364a8.28,8.28,0,0,0-10.051-6.325,7.225,7.225,0,0,0-1.289.453q-.621.277-1.314.606a.2.2,0,0,1-.284-.142c-4.088-21.982-15.592-38.4-19.242-43.172a8.3,8.3,0,0,0-6.538-3.262,8.06,8.06,0,0,0-3.7.905,17.093,17.093,0,0,0-2.967,2,.2.2,0,0,1-.3-.055c-3.167-5.814-7.277-10.742-11-15.208a100.1,100.1,0,0,1-6.652-8.555,8.555,8.555,0,0,0-5.334-3.782,8.228,8.228,0,0,0-8.6,3.578,96.993,96.993,0,0,1-6.785,8.759c-3.726,4.466-7.837,9.394-11,15.208a.2.2,0,0,1-.3.055,17.022,17.022,0,0,0-2.966-2,8.056,8.056,0,0,0-3.7-.906,8.3,8.3,0,0,0-6.537,3.261c-3.651,4.773-15.155,21.191-19.243,43.173a.2.2,0,0,1-.284.142q-.681-.323-1.293-.6a7.343,7.343,0,0,0-1.291-.458,8.281,8.281,0,0,0-10.07,6.32c-1.951,8.65-5.477,29.561.239,49.365a8.178,8.178,0,0,0-7.816,2.88,8.509,8.509,0,0,0-1.778,7.062A104.223,104.223,0,0,0,189.8,208.321Z" fill="#196868"/><path d="M256.006,151.761a6.009,6.009,0,0,1-1.906-.312c-22.641-7.581-34.232-25.391-32.64-50.149a6,6,0,0,1,11.976.77c-1.246,19.36,6.989,32.145,24.474,38a6,6,0,0,1-1.9,11.691Z" fill="#362a44"/><path d="M256,151.761a6,6,0,0,1-1.9-11.691c17.484-5.855,25.719-18.64,24.473-38a6,6,0,0,1,11.976-.77c1.592,24.758-10,42.568-32.639,50.149A6.009,6.009,0,0,1,256,151.761Z" fill="#362a44"/><path d="M256.009,211.161a6,6,0,0,1-1.475-.184c-34.467-8.717-52.076-29.628-49.585-58.881a6,6,0,1,1,11.957,1.018c-1.99,23.364,11.66,38.918,40.57,46.23a6,6,0,0,1-1.467,11.817Z" fill="#362a44"/><path d="M256,211.161a6,6,0,0,1-1.466-11.817c28.909-7.312,42.559-22.866,40.57-46.23a6,6,0,1,1,11.957-1.018c2.491,29.253-15.119,50.164-49.585,58.881A6.01,6.01,0,0,1,256,211.161Z" fill="#362a44"/><path d="M322.2,304.679a87.8,87.8,0,0,0-37.77-33.208,66.505,66.505,0,0,0-56.86,0,87.794,87.794,0,0,0-37.77,33.208,104.223,104.223,0,0,0-13.531,35.487,8.509,8.509,0,0,0,1.778,7.062,8.166,8.166,0,0,0,7.815,2.88c-5.715,19.8-2.189,40.715-.239,49.364a8.282,8.282,0,0,0,10.064,6.323,7.222,7.222,0,0,0,1.29-.457q.615-.275,1.3-.6a.2.2,0,0,1,.284.141c4.088,21.984,15.592,38.4,19.242,43.173a8.3,8.3,0,0,0,6.538,3.261,8.06,8.06,0,0,0,3.7-.905,17.131,17.131,0,0,0,2.967-2,.2.2,0,0,1,.3.055c3.167,5.814,7.278,10.742,11,15.209a99.787,99.787,0,0,1,6.652,8.555,8.555,8.555,0,0,0,5.335,3.781,8.226,8.226,0,0,0,8.6-3.579,96.98,96.98,0,0,1,6.785-8.757c3.727-4.467,7.837-9.4,11-15.209a.2.2,0,0,1,.3-.055,17.06,17.06,0,0,0,2.966,2,8.056,8.056,0,0,0,3.7.906,8.3,8.3,0,0,0,6.538-3.261c3.65-4.772,15.154-21.188,19.242-43.173a.2.2,0,0,1,.284-.141q.681.321,1.292.6a7.267,7.267,0,0,0,1.291.459,8.282,8.282,0,0,0,10.071-6.32c1.951-8.65,5.477-29.561-.239-49.365a8.167,8.167,0,0,0,7.816-2.88,8.509,8.509,0,0,0,1.778-7.062A104.223,104.223,0,0,0,322.2,304.679Z" fill="#196868"/><path d="M262,43.835a6,6,0,1,0-12,0v425.33a6,6,0,0,0,12,0Z" fill="#362a44"/><path d="M284.558,417.315c-.13,0-.26,0-.391-.013a6,6,0,0,1-5.6-6.372c1.246-19.36-6.989-32.146-24.474-38a6,6,0,0,1,3.81-11.379c22.641,7.58,34.232,25.391,32.64,50.148A6,6,0,0,1,284.558,417.315Z" fill="#362a44"/><path d="M227.433,417.315a6,6,0,0,1-5.982-5.616c-1.592-24.757,10-42.568,32.639-50.148a6,6,0,1,1,3.81,11.379c-17.484,5.854-25.719,18.64-24.474,38a6,6,0,0,1-5.6,6.372C227.692,417.311,227.562,417.315,227.433,417.315Z" fill="#362a44"/><path d="M301.08,366.4c-.171,0-.343-.007-.517-.022a6,6,0,0,1-5.469-6.487c1.99-23.364-11.66-38.918-40.57-46.23a6,6,0,1,1,2.942-11.633c34.467,8.717,52.076,29.628,49.585,58.881A6,6,0,0,1,301.08,366.4Z" fill="#362a44"/><path d="M210.911,366.4a6,6,0,0,1-5.972-5.491c-2.49-29.253,15.119-50.164,49.585-58.881a6,6,0,1,1,2.942,11.633c-28.909,7.312-42.559,22.866-40.57,46.23a6,6,0,0,1-5.47,6.487C211.253,366.389,211.081,366.4,210.911,366.4Z" fill="#362a44"/><path d="M256,42.814a2.217,2.217,0,0,1,1.871,1.021c5.638,8.675,15.234,16.773,19.73,28.211a2.318,2.318,0,0,0,2.143,1.52,2.157,2.157,0,0,0,1.7-.842,18.44,18.44,0,0,1,5.276-4.809,2.024,2.024,0,0,1,.935-.229,2.251,2.251,0,0,1,1.772.907c3.65,4.771,16.024,22.409,18.881,45.616a2.337,2.337,0,0,0,2.268,2.116,2.174,2.174,0,0,0,1.029-.262c1.725-.921,3.929-2.057,5.813-2.9a2.136,2.136,0,0,1,.877-.189,2.329,2.329,0,0,1,2.225,1.874c1.776,7.874,6.042,31.809-2.1,52.076a2.423,2.423,0,0,0,2.119,3.359,2.172,2.172,0,0,0,.389-.035c2.213-.392,4.382-.933,6.1-1.408a2.176,2.176,0,0,1,.589-.081,2.4,2.4,0,0,1,2.228,2.931c-3.742,19.257-14.216,48.484-47.971,64.413a60.5,60.5,0,0,1-51.74,0c-33.755-15.929-44.229-45.156-47.971-64.413a2.4,2.4,0,0,1,2.228-2.931,2.176,2.176,0,0,1,.589.081c1.715.475,3.884,1.016,6.1,1.408a2.164,2.164,0,0,0,.389.035,2.423,2.423,0,0,0,2.119-3.359c-8.146-20.267-3.88-44.2-2.1-52.076a2.329,2.329,0,0,1,2.225-1.874,2.136,2.136,0,0,1,.877.189c1.884.844,4.088,1.98,5.813,2.9a2.174,2.174,0,0,0,1.029.262,2.338,2.338,0,0,0,2.268-2.116C206.546,91,218.92,73.364,222.57,68.593a2.251,2.251,0,0,1,1.772-.907,2.024,2.024,0,0,1,.935.229,18.44,18.44,0,0,1,5.276,4.809,2.157,2.157,0,0,0,1.7.842,2.318,2.318,0,0,0,2.143-1.52c4.5-11.438,14.092-19.536,19.73-28.211A2.217,2.217,0,0,1,256,42.814m0-12A14.185,14.185,0,0,0,244.067,37.3a92.644,92.644,0,0,1-6.362,8.184,131.86,131.86,0,0,0-8.555,11.057,14.085,14.085,0,0,0-4.808-.851,14.327,14.327,0,0,0-11.3,5.615,114.466,114.466,0,0,0-19.048,39.675c-.1,0-.193,0-.289,0a14.251,14.251,0,0,0-13.931,11.234c-1.847,8.191-5.021,26.8-1.25,45.822a14.289,14.289,0,0,0-5.1,3.927,14.489,14.489,0,0,0-3.038,12.023c6.607,33.993,25.5,59.228,54.63,72.976a72.506,72.506,0,0,0,61.982,0c29.133-13.748,48.023-38.983,54.63-72.977a14.488,14.488,0,0,0-3.038-12.022,14.292,14.292,0,0,0-5.1-3.927c3.771-19.019.6-37.631-1.249-45.821A14.253,14.253,0,0,0,318.3,100.973c-.1,0-.193,0-.289,0A114.434,114.434,0,0,0,298.961,61.3a14.329,14.329,0,0,0-11.3-5.616,14.067,14.067,0,0,0-4.809.851A131.86,131.86,0,0,0,274.3,45.48a92.791,92.791,0,0,1-6.362-8.184A14.185,14.185,0,0,0,256,30.814Z" fill="#362a44"/><path d="M256,270.088a60.567,60.567,0,0,1,25.87,5.81c33.755,15.929,44.229,45.156,47.971,64.413a2.4,2.4,0,0,1-2.227,2.932,2.18,2.18,0,0,1-.59-.082c-1.715-.475-3.884-1.016-6.1-1.408a2.256,2.256,0,0,0-.389-.034,2.422,2.422,0,0,0-2.119,3.358c8.146,20.268,3.88,44.2,2.1,52.076a2.329,2.329,0,0,1-2.225,1.874,2.136,2.136,0,0,1-.877-.189c-1.884-.844-4.088-1.98-5.813-2.9a2.177,2.177,0,0,0-1.029-.262,2.338,2.338,0,0,0-2.268,2.116C305.454,421,293.08,438.637,289.43,443.408a2.253,2.253,0,0,1-1.772.906,2.011,2.011,0,0,1-.935-.229,18.44,18.44,0,0,1-5.276-4.809,2.159,2.159,0,0,0-1.7-.842,2.316,2.316,0,0,0-2.142,1.52c-4.5,11.438-14.092,19.537-19.73,28.211a2.225,2.225,0,0,1-3.742,0c-5.638-8.674-15.234-16.773-19.73-28.211a2.316,2.316,0,0,0-2.142-1.52,2.159,2.159,0,0,0-1.7.842,18.44,18.44,0,0,1-5.276,4.809,2.011,2.011,0,0,1-.935.229,2.253,2.253,0,0,1-1.772-.906c-3.65-4.771-16.024-22.41-18.881-45.616a2.338,2.338,0,0,0-2.268-2.117,2.174,2.174,0,0,0-1.029.262c-1.725.921-3.929,2.057-5.813,2.9a2.136,2.136,0,0,1-.877.189,2.329,2.329,0,0,1-2.225-1.874c-1.776-7.874-6.042-31.808,2.1-52.076a2.422,2.422,0,0,0-2.12-3.358,2.254,2.254,0,0,0-.388.034c-2.213.392-4.382.933-6.1,1.408a2.18,2.18,0,0,1-.59.082,2.4,2.4,0,0,1-2.227-2.932c3.742-19.257,14.216-48.484,47.971-64.413a60.567,60.567,0,0,1,25.87-5.81m0-12a72.079,72.079,0,0,0-30.991,6.957c-29.133,13.748-48.023,38.983-54.63,72.977a14.49,14.49,0,0,0,3.038,12.023,14.286,14.286,0,0,0,5.1,3.926c-3.771,19.02-.6,37.631,1.25,45.821A14.25,14.25,0,0,0,193.7,411.027q.144,0,.288,0A114.422,114.422,0,0,0,213.039,450.7a14.333,14.333,0,0,0,11.3,5.615,14.077,14.077,0,0,0,4.808-.851,131.86,131.86,0,0,0,8.555,11.057,92.644,92.644,0,0,1,6.362,8.184,14.225,14.225,0,0,0,23.866,0,92.791,92.791,0,0,1,6.362-8.184,131.86,131.86,0,0,0,8.555-11.057,14.085,14.085,0,0,0,4.808.851,14.333,14.333,0,0,0,11.3-5.615,114.44,114.44,0,0,0,19.049-39.675q.143,0,.288,0a14.251,14.251,0,0,0,13.931-11.234c1.847-8.191,5.021-26.8,1.25-45.822a14.286,14.286,0,0,0,5.1-3.926,14.491,14.491,0,0,0,3.038-12.024c-6.607-33.993-25.5-59.228-54.63-72.976A72.079,72.079,0,0,0,256,258.088Z" fill="#362a44"/><path d="M207.321,322.2a87.794,87.794,0,0,0,33.208-37.77,66.505,66.505,0,0,0,0-56.86,87.8,87.8,0,0,0-33.208-37.77,104.223,104.223,0,0,0-35.487-13.531,8.507,8.507,0,0,0-7.061,1.778,8.2,8.2,0,0,0-3.015,6.339v0a8.115,8.115,0,0,0,.134,1.474c-19.8-5.714-40.715-2.189-49.364-.238a8.28,8.28,0,0,0-6.325,10.051,7.225,7.225,0,0,0,.453,1.289q.277.621.6,1.314a.2.2,0,0,1-.141.284c-21.982,4.088-38.4,15.592-43.172,19.242a8.3,8.3,0,0,0-3.262,6.538,8.06,8.06,0,0,0,.905,3.7,17.093,17.093,0,0,0,2,2.967.2.2,0,0,1-.055.3c-5.814,3.167-10.742,7.277-15.209,11a99.936,99.936,0,0,1-8.554,6.652,8.555,8.555,0,0,0-3.782,5.334,8.228,8.228,0,0,0,3.578,8.6,96.686,96.686,0,0,1,8.758,6.786c4.467,3.725,9.4,7.836,15.209,11a.2.2,0,0,1,.055.3,17.06,17.06,0,0,0-2,2.966,8.056,8.056,0,0,0-.906,3.7,8.3,8.3,0,0,0,3.261,6.537c4.773,3.651,21.191,15.155,43.173,19.243a.2.2,0,0,1,.141.284q-.322.681-.6,1.293a7.343,7.343,0,0,0-.458,1.291,8.281,8.281,0,0,0,6.32,10.07c8.65,1.951,29.561,5.477,49.365-.239a8.178,8.178,0,0,0,2.88,7.816,8.509,8.509,0,0,0,7.062,1.778A104.223,104.223,0,0,0,207.321,322.2Z" fill="#218278"/><path d="M171.183,182.11a2.675,2.675,0,0,1,.506.049c19.257,3.743,48.484,14.216,64.413,47.971a60.5,60.5,0,0,1,0,51.74c-15.929,33.755-45.156,44.229-64.413,47.971a2.675,2.675,0,0,1-.506.049,2.32,2.32,0,0,1-2.344-2.866c.475-1.715,1.016-3.884,1.408-6.1a2.361,2.361,0,0,0-2.393-2.69,2.482,2.482,0,0,0-.931.182c-9.108,3.661-18.956,4.815-27.755,4.815a114.32,114.32,0,0,1-24.32-2.711,2.266,2.266,0,0,1-1.686-3.1c.844-1.884,1.98-4.088,2.9-5.813a2.275,2.275,0,0,0-1.854-3.3C91,305.454,73.364,293.08,68.593,289.43a2.157,2.157,0,0,1-.678-2.707,18.453,18.453,0,0,1,4.809-5.276,2.225,2.225,0,0,0-.678-3.846c-11.438-4.5-19.536-14.092-28.211-19.73a2.225,2.225,0,0,1,0-3.742c8.675-5.638,16.773-15.234,28.211-19.73a2.225,2.225,0,0,0,.678-3.846,18.44,18.44,0,0,1-4.809-5.276,2.157,2.157,0,0,1,.678-2.707c4.771-3.65,22.409-16.024,45.615-18.881a2.275,2.275,0,0,0,1.855-3.3c-.921-1.725-2.058-3.929-2.9-5.813a2.266,2.266,0,0,1,1.686-3.1,114.3,114.3,0,0,1,24.32-2.711c8.8,0,18.648,1.155,27.755,4.815a2.482,2.482,0,0,0,.931.182,2.361,2.361,0,0,0,2.393-2.689c-.392-2.214-.933-4.383-1.408-6.1a2.32,2.32,0,0,1,2.344-2.866m0-12a14.554,14.554,0,0,0-11.526,5.7,14.354,14.354,0,0,0-1.63,2.715,97.129,97.129,0,0,0-18.859-1.756,126.474,126.474,0,0,0-26.961,3,14.361,14.361,0,0,0-9.733,7.591,14.129,14.129,0,0,0-1.5,6.629A114.44,114.44,0,0,0,61.3,213.039a14.165,14.165,0,0,0-4.766,16.112,131.931,131.931,0,0,0-11.055,8.554,92.791,92.791,0,0,1-8.184,6.362,14.225,14.225,0,0,0,0,23.866,92.794,92.794,0,0,1,8.185,6.362,131.746,131.746,0,0,0,11.054,8.554A14.166,14.166,0,0,0,61.3,298.963a114.421,114.421,0,0,0,39.669,19.046,14.122,14.122,0,0,0,1.5,6.628,14.359,14.359,0,0,0,9.734,7.592,126.446,126.446,0,0,0,26.96,3,97.059,97.059,0,0,0,18.859-1.756,14.323,14.323,0,0,0,1.63,2.715,14.53,14.53,0,0,0,14.32,5.428c34-6.607,59.229-25.5,72.978-54.63a72.379,72.379,0,0,0,0-61.982c-13.748-29.132-38.983-48.022-72.976-54.63a14.692,14.692,0,0,0-2.8-.269Z" fill="#362a44"/><path d="M304.679,189.8a87.8,87.8,0,0,0-33.208,37.77,66.505,66.505,0,0,0,0,56.86,87.794,87.794,0,0,0,33.208,37.77,104.223,104.223,0,0,0,35.487,13.531,8.509,8.509,0,0,0,7.062-1.778,8.166,8.166,0,0,0,2.88-7.815c19.8,5.715,40.715,2.189,49.364.239a8.282,8.282,0,0,0,6.323-10.064,7.222,7.222,0,0,0-.457-1.29q-.275-.615-.6-1.3a.2.2,0,0,1,.141-.284c21.984-4.088,38.4-15.592,43.173-19.242a8.3,8.3,0,0,0,3.261-6.538,8.06,8.06,0,0,0-.905-3.7,17.131,17.131,0,0,0-2-2.967.2.2,0,0,1,.055-.3c5.814-3.166,10.742-7.278,15.209-11a99.608,99.608,0,0,1,8.555-6.653,8.555,8.555,0,0,0,3.781-5.335,8.226,8.226,0,0,0-3.579-8.6,96.98,96.98,0,0,1-8.757-6.785c-4.467-3.727-9.4-7.837-15.209-11a.2.2,0,0,1-.055-.3,17.022,17.022,0,0,0,2-2.966,8.056,8.056,0,0,0,.906-3.7,8.3,8.3,0,0,0-3.261-6.538c-4.772-3.65-21.188-15.154-43.173-19.242a.2.2,0,0,1-.141-.284c.214-.453.413-.885.6-1.292a7.267,7.267,0,0,0,.459-1.291,8.282,8.282,0,0,0-6.32-10.071c-8.65-1.951-29.561-5.477-49.365.239a8.167,8.167,0,0,0-2.88-7.816,8.509,8.509,0,0,0-7.062-1.778A104.223,104.223,0,0,0,304.679,189.8Z" fill="#218278"/><path d="M469.165,250H376.43c6.791-12.024,18.343-17.613,34.5-16.564a6,6,0,1,0,.77-11.975c-23.222-1.494-40.324,8.606-48.615,28.539H312.848c8-23.776,22.792-34.911,44.039-33.094a6,6,0,1,0,1.017-11.957c-27.929-2.384-48.257,13.587-57.623,45.051H211.722c-9.364-31.47-29.688-47.447-57.626-45.061a6,6,0,1,0,1.017,11.957c21.252-1.818,36.038,9.321,44.042,33.1H148.918c-8.289-19.939-25.4-30.052-48.618-28.549a6,6,0,1,0,.77,11.975c16.151-1.029,27.71,4.549,34.5,16.574H42.835a6,6,0,1,0,0,12h92.733c-6.794,12.019-18.353,17.6-34.5,16.565a6,6,0,1,0-.77,11.974q2.256.146,4.429.145c20.962,0,36.427-10.044,44.182-28.684h50.241c-8.007,23.776-22.8,34.909-44.038,33.094a6,6,0,0,0-1.019,11.957q2.734.233,5.369.232c25.174,0,43.5-15.872,52.257-45.283h88.555c8.754,29.419,27.083,45.293,52.262,45.293q2.632,0,5.366-.232a6,6,0,1,0-1.017-11.957c-21.257,1.815-36.039-9.322-44.042-33.1h50.24c7.754,18.647,23.218,28.694,44.186,28.694q2.175,0,4.429-.145a6,6,0,1,0-.77-11.975c-16.16,1.025-27.714-4.551-34.5-16.574h92.739a6,6,0,0,0,0-12Z" fill="#362a44"/><path d="M474.7,244.066a92.838,92.838,0,0,1-8.182-6.36,131.771,131.771,0,0,0-11.055-8.555,14.167,14.167,0,0,0-4.769-16.114,114.431,114.431,0,0,0-39.669-19.046,14.129,14.129,0,0,0-1.5-6.629,14.36,14.36,0,0,0-9.734-7.591,126.437,126.437,0,0,0-26.96-3,97.144,97.144,0,0,0-18.859,1.756,14.393,14.393,0,0,0-1.63-2.716,14.532,14.532,0,0,0-14.32-5.427c-34,6.607-59.229,25.5-72.977,54.63a72.372,72.372,0,0,0,0,61.982c13.747,29.133,38.982,48.023,72.975,54.63a14.534,14.534,0,0,0,14.322-5.428,14.323,14.323,0,0,0,1.63-2.715,97.059,97.059,0,0,0,18.859,1.756,126.478,126.478,0,0,0,26.96-3,14.366,14.366,0,0,0,9.735-7.594,14.135,14.135,0,0,0,1.5-6.627A114.44,114.44,0,0,0,450.7,298.961a14.165,14.165,0,0,0,4.766-16.112,131.746,131.746,0,0,0,11.054-8.554,92.794,92.794,0,0,1,8.185-6.362,14.225,14.225,0,0,0,0-23.867Zm-6.537,13.8c-8.675,5.638-16.773,15.234-28.211,19.73a2.225,2.225,0,0,0-.678,3.846,18.453,18.453,0,0,1,4.809,5.276,2.157,2.157,0,0,1-.678,2.707c-4.771,3.65-22.409,16.024-45.615,18.881a2.275,2.275,0,0,0-1.855,3.3c.921,1.725,2.058,3.929,2.9,5.813a2.267,2.267,0,0,1-1.686,3.1,114.386,114.386,0,0,1-24.32,2.71c-8.8,0-18.648-1.155-27.755-4.815a2.482,2.482,0,0,0-.931-.182,2.361,2.361,0,0,0-2.393,2.69c.392,2.213.933,4.382,1.408,6.1a2.32,2.32,0,0,1-2.344,2.866,2.675,2.675,0,0,1-.506-.049c-19.257-3.742-48.484-14.216-64.413-47.971a60.5,60.5,0,0,1,0-51.74c15.929-33.755,45.156-44.229,64.413-47.971a2.675,2.675,0,0,1,.506-.049,2.32,2.32,0,0,1,2.344,2.866c-.475,1.715-1.016,3.884-1.408,6.1a2.361,2.361,0,0,0,2.393,2.689,2.482,2.482,0,0,0,.931-.182c9.108-3.661,18.956-4.815,27.755-4.815a114.32,114.32,0,0,1,24.32,2.711,2.266,2.266,0,0,1,1.686,3.1c-.843,1.884-1.98,4.088-2.9,5.813a2.275,2.275,0,0,0,1.855,3.3c23.206,2.857,40.844,15.231,45.615,18.881a2.157,2.157,0,0,1,.678,2.707,18.44,18.44,0,0,1-4.809,5.276,2.225,2.225,0,0,0,.678,3.846c11.438,4.5,19.536,14.092,28.211,19.73A2.225,2.225,0,0,1,468.165,257.871Z" fill="#362a44"/></svg>
