<svg id="LinealColor" viewBox="0 0 512 512" xmlns="http://www.w3.org/2000/svg"><path d="m236 78.833c-27.222-29.294-62.75-4.958-58.084 23.446 5.693 34.661 60.917 37.888 50.446 74.221h23.9c.003-45.958-16.262-97.667-16.262-97.667z" fill="#71af2f"/><path d="m276 78.833c27.222-29.294 62.75-4.958 58.084 23.446-5.693 34.661-60.917 37.888-50.446 74.221h-23.9c-.003-45.958 16.262-97.667 16.262-97.667z" fill="#71af2f"/><path d="m287 47.5c-15.782-26.9-56.344-21.489-61.929.7-5.026 19.969 5.268 21.624 5.268 32.916 0 11.769-14.349 19.534-9.165 36.683a26.216 26.216 0 0 0 10.938 14.126c17.736 11.663 14.061 32.241 14.061 42.077h21.208s-3.015-39.627 12.9-65.72c17.043-27.961 13.672-48.933 6.719-60.782z" fill="#93cc42"/><path d="m273.264 171.193a256.225 256.225 0 0 1 -34.52 0c-45.061-3.045-74.961 29.752-74.961 80.773 0 57.289 41.53 232.287 92.221 232.287s92.221-175 92.221-232.287c0-51.021-29.9-83.818-74.961-80.773z" fill="#ff623e"/><g fill="#362a44"><path d="m328.455 183.616a68.946 68.946 0 0 0 -40-18.089c1.1-9.288 9.166-15.642 21.475-24.523 12.695-9.16 27.086-19.543 30.077-37.752a37.14 37.14 0 0 0 -7.152-28.645 37.718 37.718 0 0 0 -25.607-14.807 6 6 0 1 0 -1.363 11.922 25.662 25.662 0 0 1 17.393 10.123 25.24 25.24 0 0 1 4.885 19.466c-2.187 13.321-13.393 21.406-25.257 29.966-11.934 8.61-25.115 18.149-26.471 33.77-1.085.031-2.176.078-3.274.149.076-12.525 1.735-36.563 12.238-53.789 21.183-34.739 11.8-58.385 6.776-66.94-8.858-15.094-26.154-23.19-44.051-20.632-14.784 2.113-25.848 10.889-28.871 22.9-3.663 14.552-.145 21.38 2.683 26.865 1.447 2.809 2.4 4.665 2.4 7.516 0 3.137-1.833 6.377-3.955 10.128-3.922 6.931-8.8 15.558-4.953 28.292a32.309 32.309 0 0 0 13.384 17.4c10.955 7.2 11.881 18.753 11.646 28.347-.437-.028-.876-.048-1.313-.078-1.2-.081-2.4-.129-3.583-.163-1.356-15.621-14.537-25.16-26.471-33.77-11.864-8.56-23.07-16.645-25.257-29.966a25.423 25.423 0 0 1 6.652-21.569 24.963 24.963 0 0 1 20.626-8.071 6 6 0 1 0 1.114-11.948 36.864 36.864 0 0 0 -30.516 11.835 37.339 37.339 0 0 0 -9.718 31.7c2.991 18.209 17.382 28.592 30.077 37.752 12.31 8.882 20.373 15.236 21.475 24.527a68.958 68.958 0 0 0 -39.994 18.085c-16.618 15.532-25.77 39.806-25.77 68.35 0 27.177 9.6 85.3 27.4 139.5 14.8 45.066 39.1 98.788 70.82 98.788s56.02-53.722 70.82-98.788c17.8-54.195 27.4-112.322 27.4-139.5.005-28.545-9.147-52.819-25.765-68.351zm-93.046-56.706a20.317 20.317 0 0 1 -8.492-10.849c-2.364-7.82.544-12.959 3.911-18.91 2.583-4.566 5.511-9.741 5.511-16.037 0-5.761-1.985-9.614-3.737-13.012-2.29-4.445-4.269-8.284-1.712-18.439 1.784-7.087 9.215-12.564 18.933-13.954 9.915-1.418 24.248 1.615 32 14.828 3.927 6.692 11.138 25.411-6.672 54.619-12.228 20.055-14 46.9-14.012 60.558q-4.344.09-8.692.029c.268-11.258-.909-28.226-17.038-38.833zm80.451 259.459h-2.76a12.021 12.021 0 0 1 -5.332-1.2c-8.987-4.47-18.422-3.282-25.891 3.259a6 6 0 0 0 7.906 9.027c1.411-1.235 5.7-4.992 12.64-1.542a23.919 23.919 0 0 0 9.375 2.418c-17.827 50.273-38.4 79.921-55.8 79.921s-37.97-29.648-55.8-79.921a23.924 23.924 0 0 0 9.368-2.418c6.935-3.452 11.229.307 12.639 1.542a6 6 0 1 0 7.906-9.027c-7.47-6.542-16.908-7.728-25.89-3.259a12.028 12.028 0 0 1 -5.333 1.2h-2.749a628.088 628.088 0 0 1 -20.665-83.018c5.577-.771 9.507-2.556 15.345-5.22l.594-.271c4.522-2.063 15.464-4.3 24.5 2a6 6 0 1 0 6.861-9.844c-11.764-8.2-26.728-7.451-36.336-3.07l-.6.273c-5.486 2.5-8.314 3.788-12.319 4.3-2.47-16.151-3.745-29.9-3.745-39.547 0-18.648 4.287-35.079 12.257-47.732l5.613.042a28.8 28.8 0 0 0 12.768-2.931c6.429-3.2 12.372-2.468 17.668 2.169a6 6 0 0 0 7.92-9.034c-8.918-7.809-20.185-9.225-30.92-3.885a15.556 15.556 0 0 1 -2.342.905c10.689-9.535 24.514-14.506 40.315-14.506q2.607 0 5.287.181a262.607 262.607 0 0 0 35.328 0c18-1.217 33.732 3.745 45.6 14.327a15.509 15.509 0 0 1 -2.345-.905c-10.733-5.34-22-3.923-30.92 3.885a6 6 0 0 0 7.906 9.028c5.3-4.638 11.239-5.368 17.668-2.169a28.852 28.852 0 0 0 12.813 2.931l5.576-.042c7.97 12.653 12.257 29.084 12.257 47.732 0 9.649-1.275 23.4-3.746 39.548-4.008-.511-6.837-1.8-12.326-4.3l-.6-.272c-9.609-4.381-24.569-5.132-36.336 3.069a6 6 0 1 0 6.861 9.844c9.034-6.294 19.974-4.058 24.5-2l.594.271c5.839 2.664 9.771 4.451 15.353 5.22a628.088 628.088 0 0 1 -20.663 83.021z"/><path d="m256 350.254a34.235 34.235 0 0 1 -11.154-2.381c-2.7-1.125-3.527-1.389-5.426-1.389h-3.448a6 6 0 0 1 0-12h3.448a23.151 23.151 0 0 1 10.043 2.313 23.289 23.289 0 0 0 6.537 1.457 23.292 23.292 0 0 0 6.535-1.456 23.153 23.153 0 0 1 10.045-2.314h3.448a6 6 0 0 1 0 12h-3.448c-1.9 0-2.725.264-5.428 1.39a34.236 34.236 0 0 1 -11.152 2.38z"/><path d="m256 449.476a27.5 27.5 0 0 1 -9.113-1.938 7.8 7.8 0 0 0 -3.646-.963h-2.652a6 6 0 0 1 0-12h2.652a19.2 19.2 0 0 1 8.261 1.887 16.724 16.724 0 0 0 4.5 1.014 16.724 16.724 0 0 0 4.5-1.014 19.2 19.2 0 0 1 8.261-1.887h2.652a6 6 0 0 1 0 12h-2.652a7.8 7.8 0 0 0 -3.646.963 27.5 27.5 0 0 1 -9.117 1.938z"/><path d="m256 254.767a43.223 43.223 0 0 1 -15.325-3.7c-1.112-.524-2.106-1.046-2.982-1.507-2.554-1.345-3.762-1.939-5.632-1.939h-4.978a6 6 0 0 1 0-12h4.978c4.914 0 8.265 1.764 11.221 3.32.8.422 1.632.858 2.5 1.267a31.62 31.62 0 0 0 10.218 2.559 31.609 31.609 0 0 0 10.216-2.556c.87-.409 1.7-.845 2.5-1.267 2.956-1.556 6.307-3.32 11.221-3.32h4.978a6 6 0 0 1 0 12h-4.978c-1.87 0-3.078.594-5.632 1.939-.876.461-1.869.983-2.983 1.507a43.213 43.213 0 0 1 -15.322 3.697z"/></g></svg>