<svg id="LinealColor" viewBox="0 0 512 512" xmlns="http://www.w3.org/2000/svg"><path d="m232.97 351.26c-.43 51.14-6.26 96.26-38.31 122.16l-.27.21a35.073 35.073 0 0 1 -15.79 7.09c-.26.05-.53.09-.79.12a34.928 34.928 0 0 1 -10.41 0c-.27-.03-.53-.07-.8-.12a34.989 34.989 0 0 1 -15.76-7.07h-.01l-.29-.23c-32.05-25.9-37.88-71.02-38.31-122.16-.05-6.07-.02-12.23.05-18.47.2-18.76.78-38.12.78-57.42 0-41.88-.48-90.37 5.18-130.3.03-.15.05-.3.07-.46 4.98-34.69 14.65-62.85 33.38-74.46a37.632 37.632 0 0 1 14.91-5.35c1.24-.17 2.51-.29 3.81-.34q1.08-.06 2.19-.06c.74 0 1.48.02 2.2.06 1.3.05 2.56.17 3.8.34a37.479 37.479 0 0 1 14.91 5.35c18.77 11.62 28.44 39.86 33.41 74.64.01.09.03.19.04.28 5.67 39.93 5.18 88.42 5.18 130.3 0 19.31.58 38.67.78 57.44.07 6.23.11 12.39.05 18.45z" fill="#2baa4b"/><path d="m232.974 351.264c-.431 51.138-6.263 96.259-38.315 122.161a35.053 35.053 0 0 1 -44.116 0c-32.052-25.9-37.884-71.023-38.315-122.161-.051-6.078-.021-12.238.051-18.47a19.841 19.841 0 0 1 16.974 10.24 3.2 3.2 0 0 0 5.525.02 20.543 20.543 0 0 1 35.568 0 3.2 3.2 0 0 0 5.525-.02 20.213 20.213 0 0 1 35.075-.154 3.2 3.2 0 0 0 5.515-.01 19.823 19.823 0 0 1 16.461-10.056c.072 6.222.103 12.386.052 18.45z" fill="#8ecc2e"/><path d="m226.916 144.787a20.443 20.443 0 0 1 -10.968-9.225 3.2 3.2 0 0 0 -5.524-.021 20.542 20.542 0 0 1 -35.568 0 3.2 3.2 0 0 0 -5.525.021 20.214 20.214 0 0 1 -35.076.154 3.2 3.2 0 0 0 -5.514.01 20.3 20.3 0 0 1 -10.435 8.887c6.581-45.808 21.32-80.217 54.3-80.217 33.01.004 47.75 34.504 54.31 80.391z" fill="#307a46"/><circle cx="310.287" cy="121.032" fill="#2baa4b" r="59.456"/><circle cx="310.287" cy="121.032" fill="#f6ffe6" r="36.463"/><circle cx="362.73" cy="264.72" fill="#2baa4b" r="59.456"/><circle cx="362.73" cy="264.72" fill="#f6ffe6" r="37.799"/><circle cx="310.287" cy="408.409" fill="#2baa4b" r="59.456"/><circle cx="310.287" cy="408.409" fill="#f6ffe6" r="39.348"/><g fill="#362a44"><path d="m172.63 70.356a6 6 0 0 1 -6-6 47.55 47.55 0 0 1 19.939-38.8 6 6 0 1 1 6.5 10.086 35.438 35.438 0 0 0 -14.439 28.714 6 6 0 0 1 -6 6z"/><path d="m310.287 186.457a65.425 65.425 0 1 1 46.284-19.141 65.247 65.247 0 0 1 -46.284 19.141zm0-118.856a53.431 53.431 0 1 0 37.8 15.632 53.294 53.294 0 0 0 -37.799-15.633z"/><path d="m362.73 330.145a65.252 65.252 0 0 1 -46.284-19.145 65.529 65.529 0 1 1 46.284 19.141zm-37.8-27.626a53.456 53.456 0 1 0 0-75.6 53.517 53.517 0 0 0 0 75.6z"/><path d="m310.287 473.833a65.424 65.424 0 1 1 46.285-19.14 65.245 65.245 0 0 1 -46.285 19.14zm0-118.855a53.431 53.431 0 1 0 37.8 15.632 53.29 53.29 0 0 0 -37.799-15.632z"/><path d="m341.205 90.114a43.725 43.725 0 1 0 0 61.835 43.59 43.59 0 0 0 0-61.835zm-8.486 53.35a31.724 31.724 0 1 1 0-44.864 31.513 31.513 0 0 1 0 44.864z"/><circle cx="299.602" cy="131.718" r="10.236"/><circle cx="306.059" cy="106.304" r="10.236"/><circle cx="325.015" cy="125.26" r="10.236"/><path d="m393.648 233.8a43.724 43.724 0 1 0 0 61.835 43.588 43.588 0 0 0 0-61.835zm-8.485 53.349a31.724 31.724 0 1 1 0-44.864 31.518 31.518 0 0 1 0 44.867z"/><circle cx="373.416" cy="275.406" r="10.236"/><circle cx="348.003" cy="268.948" r="10.236"/><circle cx="366.958" cy="249.992" r="10.236"/><path d="m341.205 377.491a43.724 43.724 0 1 0 0 61.835 43.586 43.586 0 0 0 0-61.835zm-8.486 53.35a31.724 31.724 0 1 1 0-44.865 31.512 31.512 0 0 1 0 44.865z"/><circle cx="299.602" cy="397.723" r="10.236"/><circle cx="325.015" cy="404.181" r="10.236"/><circle cx="306.059" cy="423.136" r="10.236"/><path d="m238.6 310.6c-.213-11.554-.433-23.5-.433-35.273v-9.216c.038-44.753.08-95.477-7.456-135.352-4.215-22.3-10.321-38.925-18.67-50.835-10.034-14.313-23.3-21.571-39.42-21.571s-29.387 7.258-39.42 21.571c-8.35 11.91-14.456 28.539-18.671 50.835-7.536 39.875-7.494 90.6-7.456 135.352l.005 9.216c0 11.772-.22 23.719-.433 35.273-1.257 68.41-2.447 133.026 40.148 167.441a40.8 40.8 0 0 0 51.653 0c42.6-34.412 41.41-99.028 40.153-167.441zm-34.38-52.585c.344 84.587.7 172.009-24.472 216.316-.379.1-.763.164-1.144.245v-396.922c27 36.456 26.217 113.587 25.73 161.252-.071 6.9-.134 13.417-.114 19.112zm-63.232 0c.024-5.7-.044-12.213-.114-19.114-.487-47.663-1.271-124.793 25.73-161.249v396.917c-.384-.082-.769-.148-1.149-.246-25.167-44.311-24.811-131.723-24.467-216.305zm-22.339 52.806c.214-11.609.435-23.612.435-35.494l-.005-9.226c-.037-44.224-.079-94.348 7.248-133.113 5.41-28.623 14.135-47.245 26.438-56.256-9.711 15.89-16.348 37.807-20.128 66.3-4.405 33.2-4.033 69.49-3.762 95.989.07 6.856.136 13.332.113 18.942-.308 75.652-.621 153.522 17.436 203.3-29.938-32.58-28.887-89.957-27.775-150.439zm80.1 150.529c18.087-49.776 17.775-127.69 17.468-203.384-.023-5.609.043-12.085.113-18.94.271-26.5.642-62.79-3.762-95.99-3.786-28.542-10.441-50.477-20.177-66.374 12.352 8.985 21.106 27.631 26.53 56.326 7.327 38.765 7.285 88.889 7.248 133.113v9.226c0 11.882.221 23.885.435 35.494 1.111 60.536 2.162 117.957-27.852 150.532z"/></g></svg>