<svg id="LinealColor" viewBox="0 0 512 512" xmlns="http://www.w3.org/2000/svg"><path d="m253.92 121.835c21.1-9.78 15.577-37.538-2.038-43.142a8.27 8.27 0 0 1 -5.61-9.338c2.392-14.211-7.434-34.464-30.206-30.442-22.744 4.016-25.061 26.36-17.978 38.9a8.79 8.79 0 0 1 -2.258 10.907c-15.424 12.3-6.3 48.725 21.882 45.927 6.6-.655 10.847 3.286 12.822 9.617 3.044 9.755 2.059 19.532 3.143 35.173h20.271l-7.394-51.548a18.924 18.924 0 0 1 7.366-6.054z" fill="#196868"/><path d="m258.08 121.835c-21.1-9.78-15.577-37.538 2.038-43.142a8.27 8.27 0 0 0 5.61-9.338c-2.392-14.211 7.434-34.464 30.206-30.442 22.744 4.016 25.061 26.36 17.978 38.9a8.79 8.79 0 0 0 2.258 10.907c15.424 12.3 6.3 48.725-21.882 45.927-6.6-.655-10.847 3.286-12.822 9.617-3.044 9.755-3.059 19.532-4.143 35.173h-19.271l7.394-51.548a18.924 18.924 0 0 0 -7.366-6.054z" fill="#196868"/><path d="m284.353 77.1a8.27 8.27 0 0 1 -3.9-10.171c4.827-13.579-1.328-35.232-24.452-35.232s-29.279 21.653-24.452 35.232a8.27 8.27 0 0 1 -3.9 10.171c-16.371 8.583-16.979 36.877 5.5 42.84 6.748 1.79 10.156 7.16 11.573 14 2.137 10.307 2.164 37.618 3.712 45.507h15.142c1.548-7.889 1.575-35.2 3.712-45.507 1.417-6.836 4.825-12.206 11.573-14 22.471-5.968 21.863-34.262 5.492-42.84z" fill="#218278"/><path d="m278.668 88.314a6 6 0 0 0 -8.484-.133 22.352 22.352 0 0 1 -8.184 4.889v-21.817a23.839 23.839 0 0 0 8.533-7.758 6 6 0 0 0 -9.8-6.928c-1.554 2.2-2.95 4.251-4.735 4.251s-3.181-2.052-4.735-4.251a6 6 0 1 0 -9.8 6.928 23.839 23.839 0 0 0 8.537 7.758v21.817a22.352 22.352 0 0 1 -8.184-4.889 6 6 0 1 0 -8.351 8.617 35.845 35.845 0 0 0 16.535 8.771v11.745a6 6 0 0 0 12 0v-11.745a35.845 35.845 0 0 0 16.535-8.769 6 6 0 0 0 .133-8.486z" fill="#362a44"/><path d="m269.423 468.431a15.639 15.639 0 0 1 -26.846 0c-31.5-52.711-71.638-177.674-58.707-255.261a35.2 35.2 0 0 1 .955-4.145c5.468-18.612 25.866-31.345 46.489-33.294 5.12-.483 44.252-.483 49.372 0 20.623 1.949 41.021 14.682 46.489 33.294a35.2 35.2 0 0 1 .955 4.145c12.931 77.587-27.212 202.55-58.707 255.261z" fill="#ffe8e3"/><path d="m327.175 209.025c-5.52-4.32-15.8-13.944-33.335-13.944-7.972 0-15.134 3.653-21.454 5.787a51.465 51.465 0 0 1 -32.772 0c-6.32-2.134-13.482-5.787-21.454-5.787-17.534 0-27.815 9.624-33.335 13.944 5.468-18.612 25.866-31.345 46.489-33.294 5.12-.483 44.252-.483 49.372 0 20.623 1.949 41.021 14.682 46.489 33.294z" fill="#ff8a8a"/><g fill="#362a44"><path d="m271.575 244.637a24.565 24.565 0 0 1 -8.156-1.732 5.881 5.881 0 0 0 -2.8-.759h-2.279a6 6 0 0 1 0-12h2.279a17.242 17.242 0 0 1 7.42 1.683 8.152 8.152 0 0 0 7.073 0 17.231 17.231 0 0 1 7.423-1.685h2.279a6 6 0 0 1 0 12h-2.279a5.884 5.884 0 0 0 -2.805.761 24.579 24.579 0 0 1 -8.155 1.732z"/><path d="m228.139 341.087a24.585 24.585 0 0 1 -8.153-1.73 5.884 5.884 0 0 0 -2.8-.761h-2.286a6 6 0 0 1 0-12h2.278a17.21 17.21 0 0 1 7.423 1.686 13.751 13.751 0 0 0 3.537.805 13.773 13.773 0 0 0 3.536-.806 17.207 17.207 0 0 1 7.42-1.685h2.278a6 6 0 0 1 0 12h-2.272a5.872 5.872 0 0 0 -2.8.761 24.606 24.606 0 0 1 -8.161 1.73z"/><path d="m334.047 212.177a41.255 41.255 0 0 0 -1.115-4.843c-5.817-19.8-27.07-35.251-51.683-37.577-1.478-.139-5.5-.24-10.671-.3.176-2.831.335-5.951.5-9.246.475-9.337 1.012-19.919 2.078-25.059 1.474-7.109 4.836-8.778 7.237-9.415 12.193-3.235 20.285-12.4 21.645-24.522 1.371-12.213-4.618-24.04-14.9-29.43a2.268 2.268 0 0 1 -1.034-2.848 34.977 34.977 0 0 0 -.492-24.014 22.856 22.856 0 0 1 9.278-.1c7.167 1.266 12.111 4.686 14.7 10.163 3.248 6.882 1.889 14.943-.9 19.878a14.705 14.705 0 0 0 3.74 18.549c5.346 4.265 6.764 13.911 3.3 22.438-1.751 4.306-7.278 14.18-20.845 12.829-9.013-.895-16.167 4.263-19.143 13.8-1.987 6.368-2.113 12.508-2.073 19.876a6 6 0 0 0 6 5.966h.033a6 6 0 0 0 5.968-6.033c-.036-6.522.052-11.5 1.528-16.235 1.84-5.895 4.987-5.585 6.5-5.433 14.772 1.465 27.472-6.293 33.147-20.251 5.569-13.7 2.719-28.64-6.931-36.338a2.836 2.836 0 0 1 -.775-3.265 34.624 34.624 0 0 0 1.3-30.9c-4.221-8.944-12.553-14.931-23.461-16.857a33.4 33.4 0 0 0 -18.078 1.49c-5.7-5.709-13.658-8.81-22.895-8.81s-17.192 3.1-22.9 8.811a33.365 33.365 0 0 0 -18.083-1.5c-10.908 1.926-19.24 7.913-23.461 16.857a34.624 34.624 0 0 0 1.3 30.9 2.835 2.835 0 0 1 -.776 3.265c-9.649 7.7-12.5 22.64-6.93 36.338 5.675 13.958 18.377 21.72 33.147 20.251 1.515-.151 4.662-.462 6.5 5.433 1.476 4.73 1.564 9.713 1.528 16.235a6 6 0 0 0 5.968 6.033h.033a6 6 0 0 0 6-5.966c.04-7.368-.086-13.508-2.073-19.876-2.976-9.537-10.129-14.7-19.143-13.8-13.555 1.351-19.094-8.524-20.845-12.829-3.466-8.527-2.048-18.173 3.3-22.438a14.7 14.7 0 0 0 3.741-18.549c-2.788-4.935-4.147-13-.9-19.878 2.585-5.477 7.529-8.9 14.7-10.163a22.827 22.827 0 0 1 9.277.1 34.975 34.975 0 0 0 -.491 24.011 2.267 2.267 0 0 1 -1.033 2.847c-10.284 5.391-16.273 17.218-14.9 29.431 1.36 12.12 9.452 21.287 21.646 24.522 2.4.637 5.762 2.306 7.236 9.415 1.066 5.14 1.6 15.722 2.078 25.059.167 3.3.327 6.412.5 9.246-5.17.063-9.194.164-10.672.3-24.612 2.326-45.865 17.778-51.679 37.568a41.219 41.219 0 0 0 -1.119 4.859c-12.9 77.407 25.945 203.21 59.475 259.326a21.639 21.639 0 0 0 37.146 0c33.525-56.104 72.374-181.907 59.472-259.321zm-99.364-98.042c-10.417-2.763-12.42-10.894-12.8-14.261-.81-7.22 2.705-14.4 8.549-17.465a14.2 14.2 0 0 0 6.768-17.5c-1.9-5.345-1.849-13.525 2.547-19.754 3.5-4.955 8.965-7.468 16.251-7.468s12.753 2.513 16.251 7.468c4.4 6.229 4.447 14.409 2.547 19.755a14.205 14.205 0 0 0 6.769 17.495c5.843 3.063 9.358 10.244 8.548 17.464-.378 3.367-2.381 11.5-12.8 14.261-5.821 1.544-13.307 6.02-15.91 18.579-1.253 6.044-1.792 16.639-2.312 26.886-.171 3.355-.345 6.745-.538 9.776-1.7 0-3.414 0-5.115 0-.194-3.031-.368-6.42-.539-9.776-.52-10.247-1.059-20.842-2.312-26.886-2.598-12.554-10.087-17.03-15.904-18.574zm86.6 177.364a21.746 21.746 0 0 0 -7.389 1.983 12.234 12.234 0 0 1 -10.461 0 20.747 20.747 0 0 0 -8.9-2.038h-2.939a6 6 0 0 0 0 12h2.939c1.468 0 2.08.2 4.283 1.116a30.248 30.248 0 0 0 9.849 2.1c2.7 0 10.418-2.333 10.668-2.434a551.851 551.851 0 0 1 -17.133 71.063 17.392 17.392 0 0 0 -7.072 1.676 8.168 8.168 0 0 1 -7.076 0 17.213 17.213 0 0 0 -7.42-1.686h-2.279a6 6 0 0 0 0 12h2.279a5.884 5.884 0 0 1 2.805.762 24.61 24.61 0 0 0 8.153 1.73 23.917 23.917 0 0 0 6.273-1.066c-10.27 30.5-22.247 57.66-33.593 76.65a9.639 9.639 0 0 1 -16.544 0 320.578 320.578 0 0 1 -18.606-37.255 21.394 21.394 0 0 0 4.464.592 24.591 24.591 0 0 0 8.152-1.729 5.882 5.882 0 0 1 2.806-.763h2.278a6 6 0 0 0 0-12h-2.278a17.216 17.216 0 0 0 -7.423 1.687 13.729 13.729 0 0 1 -3.533.805 13.728 13.728 0 0 1 -3.54-.806 17.6 17.6 0 0 0 -6.623-1.663c-15.487-39.421-28.952-88.113-33.973-132.808.27.108 8.041 2.462 10.741 2.462a30.238 30.238 0 0 0 9.848-2.1c2.2-.919 2.815-1.116 4.284-1.116h2.939a6 6 0 0 0 0-12h-2.939a20.734 20.734 0 0 0 -8.9 2.039 19 19 0 0 1 -5.232 1.174 19.013 19.013 0 0 1 -5.23-1.173 22.6 22.6 0 0 0 -6.709-1.923c-1.507-19.668-1.188-38.275 1.536-54.621a29.206 29.206 0 0 1 .794-3.446c4.4-14.965 21.765-27.167 41.3-29.013 2.367-.224 45.878-.224 48.245 0 19.531 1.846 36.9 14.048 41.3 29.022a29.241 29.241 0 0 1 .79 3.43c3.749 22.539 2.929 49.369-.936 77.35z"/><path d="m256 209.533a57.441 57.441 0 0 1 -18.3-2.978c-1.584-.534-3.2-1.152-4.764-1.748-4.8-1.832-9.762-3.726-14.777-3.726a39.343 39.343 0 0 0 -6.856.592 6 6 0 0 1 -2.1-11.815 51.422 51.422 0 0 1 8.953-.777c7.227 0 13.511 2.4 19.055 4.514 1.523.582 2.962 1.131 4.319 1.589a45.653 45.653 0 0 0 28.938 0c1.351-.456 2.79-1 4.313-1.587 5.544-2.115 11.828-4.514 19.055-4.514a51.167 51.167 0 0 1 9.315.843 6 6 0 0 1 -2.187 11.8 39.194 39.194 0 0 0 -7.128-.642c-5.015 0-9.977 1.894-14.777 3.726-1.563.6-3.18 1.214-4.758 1.746a57.51 57.51 0 0 1 -18.301 2.977z"/></g></svg>